<svg id="svg" version="1.1" xmlns="http://www.w3.org/2000/svg" xmlns:xlink="http://www.w3.org/1999/xlink" width="400" height="150.4" viewBox="0, 0, 400,150.4"><g id="svgg"><path id="path0" d="M99.741 8.292 C 99.802 8.635,99.904 9.389,99.968 9.967 L 100.083 11.018 116.295 11.005 C 134.530 10.991,133.167 10.883,133.167 12.339 L 133.167 13.333 134.000 13.333 L 134.833 13.333 134.833 12.427 C 134.833 11.527,134.830 11.521,134.292 11.469 L 133.750 11.417 133.772 10.083 C 133.784 9.350,133.849 8.506,133.916 8.208 L 134.038 7.667 116.834 7.667 L 99.630 7.667 99.741 8.292 M136.867 11.792 L 136.917 12.750 147.065 12.793 C 158.340 12.841,157.667 12.914,157.667 11.646 L 157.667 10.833 147.242 10.833 L 136.817 10.833 136.867 11.792 M74.833 14.125 L 74.833 15.917 93.292 15.882 L 111.750 15.848 111.750 14.468 L 111.750 13.089 111.083 12.971 C 110.717 12.906,108.354 12.848,105.833 12.842 C 102.107 12.833,101.161 12.785,100.773 12.582 C 100.160 12.263,99.006 12.263,98.394 12.582 C 97.677 12.956,78.452 12.957,77.558 12.583 C 77.229 12.446,76.481 12.333,75.896 12.333 L 74.833 12.333 74.833 14.125 M158.833 24.417 L 158.833 25.333 159.589 25.333 C 160.008 25.333,160.530 25.212,160.760 25.061 C 161.140 24.812,161.200 24.812,161.469 25.056 C 161.729 25.290,162.797 25.330,170.507 25.393 C 178.391 25.458,179.902 25.527,182.218 25.929 L 182.853 26.039 182.802 25.228 L 182.750 24.417 181.958 24.366 C 181.290 24.323,181.167 24.262,181.167 23.976 C 181.167 23.659,181.098 23.644,180.125 23.750 C 177.653 24.018,161.141 24.021,160.733 23.754 C 160.520 23.614,160.005 23.500,159.589 23.500 L 158.833 23.500 158.833 24.417 M75.500 27.548 C 75.500 28.349,75.454 28.467,75.075 28.640 C 74.336 28.977,55.194 28.908,54.337 28.565 C 53.248 28.130,53.167 28.243,53.167 30.203 L 53.167 31.917 71.441 31.883 C 81.492 31.865,89.817 31.811,89.941 31.764 C 90.104 31.701,90.167 31.314,90.167 30.359 L 90.167 29.042 89.646 28.938 C 89.359 28.880,86.664 28.833,83.657 28.833 C 77.283 28.833,77.370 28.850,77.301 27.633 L 77.250 26.750 76.375 26.700 L 75.500 26.649 75.500 27.548 M110.000 34.000 L 110.000 34.833 110.833 34.833 L 111.667 34.833 111.667 34.000 L 111.667 33.167 110.833 33.167 L 110.000 33.167 110.000 34.000 M121.667 33.239 C 121.667 33.591,122.051 34.168,122.288 34.172 C 122.814 34.181,123.216 34.613,123.127 35.075 L 123.046 35.500 128.000 35.500 L 132.954 35.500 132.873 35.075 C 132.784 34.613,133.186 34.181,133.712 34.172 C 133.949 34.168,134.333 33.591,134.333 33.239 C 134.333 33.199,131.483 33.167,128.000 33.167 C 124.517 33.167,121.667 33.199,121.667 33.239 M141.833 34.000 L 141.833 34.833 142.750 34.833 L 143.667 34.833 143.667 34.000 L 143.667 33.167 142.750 33.167 L 141.833 33.167 141.833 34.000 M87.500 38.000 L 87.500 38.833 88.417 38.833 L 89.333 38.833 89.333 38.000 L 89.333 37.167 88.417 37.167 L 87.500 37.167 87.500 38.000 M182.333 39.633 C 182.333 40.897,181.948 40.833,189.613 40.833 L 196.492 40.833 196.754 40.434 C 196.898 40.215,197.059 39.765,197.113 39.434 L 197.210 38.833 189.772 38.833 L 182.333 38.833 182.333 39.633 M179.533 40.375 L 179.583 41.250 180.417 41.250 L 181.250 41.250 181.300 40.375 L 181.351 39.500 180.417 39.500 L 179.483 39.500 179.533 40.375 M158.667 46.000 L 158.667 46.833 159.583 46.833 L 160.500 46.833 160.500 46.000 L 160.500 45.167 159.583 45.167 L 158.667 45.167 158.667 46.000 M53.760 46.089 C 53.491 46.292,52.518 46.333,47.971 46.333 L 42.506 46.333 42.411 46.713 C 42.358 46.923,42.338 47.579,42.366 48.172 L 42.417 49.250 60.792 49.292 L 79.167 49.335 79.167 47.935 C 79.167 46.813,79.114 46.516,78.903 46.434 C 78.758 46.379,73.597 46.333,67.435 46.333 C 57.841 46.333,56.184 46.298,55.907 46.089 C 55.729 45.954,55.246 45.844,54.833 45.844 C 54.421 45.844,53.938 45.954,53.760 46.089 M79.533 52.375 L 79.583 53.250 80.417 53.250 L 81.250 53.250 81.300 52.375 L 81.351 51.500 80.417 51.500 L 79.483 51.500 79.533 52.375 M196.333 60.425 L 196.333 61.351 197.208 61.300 L 198.083 61.250 198.134 60.375 L 198.184 59.500 197.259 59.500 L 196.333 59.500 196.333 60.425 M164.333 64.425 L 164.333 65.351 165.208 65.300 L 166.083 65.250 166.134 64.375 L 166.184 63.500 165.259 63.500 L 164.333 63.500 164.333 64.425 M36.455 65.268 C 36.244 65.478,36.323 66.609,36.582 67.106 C 36.719 67.369,36.832 67.788,36.832 68.038 C 36.833 68.372,36.934 68.518,37.208 68.585 C 37.772 68.722,73.453 68.602,73.593 68.463 C 73.659 68.396,73.647 67.796,73.565 67.129 L 73.417 65.917 57.917 65.811 C 47.427 65.739,41.986 65.642,41.083 65.509 C 39.357 65.255,36.610 65.112,36.455 65.268 M74.000 75.583 L 74.000 76.500 74.833 76.500 L 75.667 76.500 75.667 75.583 L 75.667 74.667 74.833 74.667 L 74.000 74.667 74.000 75.583 M75.917 87.809 C 75.464 88.057,73.866 88.088,59.083 88.131 C 40.491 88.186,42.333 88.005,42.333 89.779 C 42.333 90.728,42.369 90.836,42.708 90.918 C 42.915 90.967,51.183 90.988,61.083 90.962 L 79.083 90.917 79.185 89.917 C 79.242 89.367,79.383 88.715,79.499 88.469 C 79.895 87.632,79.679 87.498,77.964 87.518 C 76.870 87.530,76.270 87.616,75.917 87.809 M40.333 96.333 L 40.333 97.167 41.167 97.167 L 42.000 97.167 42.000 96.333 L 42.000 95.500 41.167 95.500 L 40.333 95.500 40.333 96.333 M79.250 99.713 C 79.002 99.865,76.400 99.938,69.083 100.000 L 59.250 100.083 59.202 101.453 C 59.156 102.762,59.171 102.828,59.535 102.916 C 59.745 102.967,68.017 102.988,77.917 102.962 L 95.917 102.917 95.965 101.458 L 96.013 100.000 89.048 99.999 C 83.196 99.998,82.007 99.958,81.606 99.749 C 81.033 99.450,79.714 99.430,79.250 99.713 M96.192 110.875 C 96.033 111.033,94.079 111.103,88.033 111.167 L 80.083 111.250 80.083 112.667 L 80.083 114.083 98.417 114.083 L 116.750 114.083 116.750 112.667 L 116.750 111.250 107.633 111.167 C 100.654 111.103,98.468 111.034,98.308 110.875 C 98.194 110.760,97.718 110.667,97.250 110.667 C 96.782 110.667,96.306 110.760,96.192 110.875 M57.167 117.917 L 57.167 118.833 58.000 118.833 L 58.833 118.833 58.833 117.917 L 58.833 117.000 58.000 117.000 L 57.167 117.000 57.167 117.917 M77.833 129.167 L 77.833 130.000 78.750 130.000 L 79.667 130.000 79.667 129.167 L 79.667 128.333 78.750 128.333 L 77.833 128.333 77.833 129.167 " stroke="none" fill="#0a0a0a" fill-rule="evenodd"></path><path id="path1" d="M257.582 108.021 C 257.584 108.755,257.156 108.997,256.520 108.622 C 255.704 108.139,255.698 108.156,255.698 111.167 C 255.698 113.858,255.714 114.000,256.021 114.000 C 256.199 114.000,256.387 113.888,256.440 113.750 C 256.669 113.152,257.667 113.585,257.667 114.283 C 257.667 114.651,257.720 114.667,259.000 114.667 C 260.222 114.667,260.333 114.639,260.333 114.333 C 260.333 114.148,260.444 114.000,260.583 114.000 C 260.746 114.000,260.833 113.837,260.833 113.533 C 260.833 112.967,261.104 112.667,261.617 112.667 C 261.989 112.667,262.000 112.623,262.000 111.106 C 262.000 109.590,261.989 109.546,261.625 109.574 C 261.092 109.615,260.833 109.366,260.833 108.813 C 260.833 108.498,260.748 108.333,260.583 108.333 C 260.428 108.333,260.333 108.176,260.333 107.917 C 260.333 107.506,260.314 107.500,258.957 107.500 L 257.580 107.500 257.582 108.021 M129.199 109.125 L 129.250 109.917 130.458 109.966 C 131.530 110.009,131.667 110.052,131.667 110.341 C 131.667 110.552,131.780 110.667,131.988 110.667 C 132.195 110.667,132.329 110.801,132.363 111.042 C 132.398 111.283,132.551 111.436,132.792 111.470 L 133.167 111.523 133.167 123.075 C 133.167 134.625,133.167 134.628,132.821 134.718 C 132.631 134.768,132.435 134.964,132.385 135.154 C 132.334 135.350,132.158 135.500,131.981 135.500 C 131.757 135.500,131.667 135.620,131.667 135.917 C 131.667 136.324,131.639 136.333,130.408 136.333 L 129.148 136.333 129.199 137.125 L 129.250 137.917 136.667 137.960 L 144.083 138.004 144.026 137.168 L 143.968 136.333 142.984 136.333 C 142.046 136.333,142.000 136.314,142.000 135.917 C 142.000 135.583,141.917 135.500,141.583 135.500 C 141.250 135.500,141.167 135.417,141.167 135.083 C 141.167 134.752,141.083 134.667,140.756 134.667 C 140.006 134.667,140.000 134.575,140.000 123.167 C 140.000 111.759,140.006 111.667,140.756 111.667 C 141.101 111.667,141.167 111.587,141.167 111.167 C 141.167 110.744,141.231 110.667,141.583 110.667 C 141.889 110.667,142.000 110.578,142.000 110.333 C 142.000 110.037,142.111 110.000,143.000 110.000 L 144.000 110.000 144.000 109.167 L 144.000 108.333 136.574 108.333 L 129.148 108.333 129.199 109.125 M238.033 109.125 C 238.076 109.801,238.138 109.924,238.458 109.970 C 238.699 110.004,238.833 110.138,238.833 110.345 C 238.833 110.577,238.949 110.667,239.250 110.667 C 239.501 110.667,239.667 110.762,239.667 110.906 C 239.667 111.041,239.862 111.167,240.118 111.197 C 240.802 111.277,240.799 111.229,240.816 123.000 C 240.832 134.480,240.788 135.281,240.144 135.112 C 239.946 135.061,239.776 135.121,239.722 135.263 C 239.672 135.393,239.452 135.500,239.232 135.500 C 238.918 135.500,238.833 135.588,238.833 135.917 C 238.833 136.252,238.751 136.333,238.408 136.333 C 238.004 136.333,237.984 136.374,238.033 137.125 L 238.083 137.917 243.092 137.961 L 248.100 138.005 248.036 137.452 C 247.993 137.085,247.851 136.847,247.611 136.742 C 247.368 136.635,247.233 136.406,247.198 136.042 C 247.169 135.744,247.075 135.500,246.989 135.500 C 246.894 135.500,246.833 130.249,246.833 121.917 L 246.833 108.333 242.408 108.333 L 237.982 108.333 238.033 109.125 M333.199 109.125 L 333.250 109.917 333.949 109.967 C 334.343 109.996,334.859 109.909,335.133 109.768 C 335.694 109.477,336.000 109.659,336.000 110.283 C 336.000 110.494,336.075 110.667,336.167 110.667 C 336.258 110.667,336.333 111.029,336.333 111.471 C 336.333 112.270,336.337 112.275,336.833 112.202 L 337.333 112.129 337.333 123.167 L 337.333 134.204 336.833 134.131 C 336.344 134.059,336.333 134.072,336.333 134.779 C 336.333 135.175,336.263 135.500,336.177 135.500 C 336.091 135.500,335.998 135.744,335.969 136.042 C 335.911 136.639,336.097 136.605,334.032 136.393 L 333.147 136.301 333.199 137.109 L 333.250 137.917 341.502 137.960 L 349.753 138.003 349.752 137.460 C 349.750 136.976,349.796 136.923,350.167 136.974 C 350.396 137.005,351.122 137.067,351.779 137.111 L 352.975 137.192 353.029 136.728 C 353.083 136.268,353.092 136.265,354.333 136.257 C 355.500 136.250,355.587 136.225,355.637 135.875 C 355.666 135.669,355.797 135.500,355.928 135.500 C 356.154 135.500,356.195 135.413,356.234 134.841 C 356.247 134.655,356.456 134.609,357.125 134.645 C 357.905 134.686,358.000 134.655,358.000 134.357 C 358.000 134.138,358.129 134.005,358.375 133.970 C 358.612 133.936,358.769 133.783,358.802 133.552 C 358.834 133.325,358.991 133.168,359.219 133.135 C 359.449 133.102,359.603 132.946,359.637 132.708 C 359.671 132.467,359.805 132.333,360.012 132.333 C 360.287 132.333,360.333 132.212,360.333 131.500 C 360.333 130.722,360.361 130.667,360.750 130.667 C 361.133 130.667,361.167 130.606,361.167 129.917 C 361.167 129.228,361.201 129.167,361.583 129.167 C 362.080 129.167,362.187 128.011,361.766 127.197 C 361.429 126.546,361.798 125.667,362.409 125.667 L 362.833 125.667 362.833 122.952 L 362.833 120.237 362.398 120.243 C 361.744 120.253,361.438 119.711,361.755 119.102 C 362.193 118.257,362.086 117.402,361.542 117.410 C 361.092 117.417,361.084 117.399,361.137 116.542 C 361.189 115.699,361.175 115.667,360.762 115.667 C 360.359 115.667,360.333 115.617,360.333 114.833 C 360.333 114.121,360.287 114.000,360.012 114.000 C 359.805 114.000,359.671 113.866,359.637 113.625 C 359.602 113.384,359.449 113.231,359.208 113.197 C 358.937 113.158,358.833 113.032,358.833 112.738 C 358.833 112.421,358.746 112.333,358.428 112.333 C 358.135 112.333,358.008 112.230,357.970 111.958 C 357.936 111.717,357.783 111.564,357.542 111.530 C 357.301 111.496,357.167 111.362,357.167 111.155 C 357.167 110.784,356.739 110.732,356.096 111.025 C 355.575 111.262,355.167 110.985,355.167 110.396 C 355.167 110.055,355.086 110.000,354.583 110.000 C 354.068 110.000,354.000 109.950,354.000 109.573 L 354.000 109.145 352.292 109.221 C 351.352 109.262,350.396 109.324,350.167 109.357 C 349.803 109.409,349.743 109.347,349.698 108.875 L 349.646 108.333 341.397 108.333 L 333.148 108.333 333.199 109.125 M183.833 110.500 C 183.833 110.944,183.778 111.000,183.333 111.000 C 183.011 111.000,182.833 111.085,182.833 111.238 C 182.833 111.370,182.665 111.501,182.458 111.530 C 182.217 111.564,182.064 111.717,182.030 111.958 C 181.992 112.230,181.865 112.333,181.572 112.333 C 181.254 112.333,181.167 112.421,181.167 112.738 C 181.167 113.032,181.063 113.158,180.792 113.197 C 180.454 113.245,180.422 113.330,180.467 114.042 C 180.507 114.672,180.463 114.833,180.254 114.833 C 180.110 114.833,179.920 115.021,179.833 115.250 C 179.739 115.498,179.543 115.667,179.349 115.667 C 179.138 115.667,179.004 115.799,178.970 116.042 C 178.921 116.384,178.841 116.412,178.042 116.363 C 177.205 116.312,177.167 116.328,177.167 116.726 C 177.167 117.032,177.066 117.158,176.792 117.197 C 176.447 117.246,176.417 117.337,176.417 118.333 L 176.417 119.417 177.625 119.466 L 178.833 119.515 178.833 127.257 L 178.833 135.000 179.217 135.000 C 179.678 135.000,180.000 135.290,180.000 135.705 C 180.000 135.873,180.112 136.054,180.250 136.106 C 180.396 136.162,180.500 136.412,180.500 136.703 C 180.500 137.180,180.527 137.199,181.042 137.097 C 182.215 136.864,182.250 136.875,182.248 137.463 L 182.246 138.010 184.081 137.963 C 185.828 137.919,185.919 137.899,185.969 137.550 C 186.013 137.241,186.143 137.176,186.802 137.134 C 187.467 137.091,187.591 137.027,187.637 136.708 C 187.671 136.467,187.805 136.333,188.012 136.333 C 188.244 136.333,188.333 136.217,188.333 135.917 C 188.333 135.578,188.415 135.500,188.771 135.500 C 189.196 135.500,189.207 135.476,189.129 134.667 C 189.050 133.843,189.054 133.833,189.524 133.833 C 189.978 133.833,190.000 133.798,190.000 133.074 L 190.000 132.315 189.208 132.366 C 188.533 132.409,188.409 132.472,188.363 132.792 C 188.329 133.033,188.195 133.167,187.988 133.167 C 187.756 133.167,187.667 133.283,187.667 133.583 C 187.667 133.972,187.611 134.000,186.833 134.000 C 186.056 134.000,186.000 133.972,186.000 133.583 C 186.000 133.250,185.917 133.167,185.583 133.167 L 185.167 133.167 185.167 126.333 L 185.167 119.500 187.167 119.500 L 189.167 119.500 189.167 118.333 L 189.167 117.167 187.167 117.167 L 185.167 117.167 185.167 113.583 L 185.167 110.000 184.500 110.000 C 183.870 110.000,183.833 110.028,183.833 110.500 M349.467 110.533 C 349.577 110.643,349.667 110.907,349.667 111.120 C 349.667 111.470,349.733 111.502,350.375 111.461 C 351.051 111.419,351.083 111.437,351.065 111.875 C 351.052 112.217,351.126 112.333,351.357 112.333 C 351.527 112.333,351.667 112.441,351.667 112.572 C 351.667 112.709,351.863 112.834,352.125 112.864 C 352.601 112.919,352.602 112.922,352.473 114.083 C 352.426 114.495,352.483 114.592,352.792 114.636 C 353.110 114.682,353.167 114.792,353.167 115.363 C 353.167 115.989,353.194 116.029,353.564 115.936 C 354.132 115.794,354.445 116.206,354.191 116.763 C 353.798 117.625,353.940 118.965,354.415 118.874 C 354.927 118.777,355.203 119.346,354.969 120.016 C 354.799 120.504,354.886 125.791,355.078 126.612 C 355.271 127.443,354.922 128.297,354.411 128.241 C 353.923 128.188,353.813 129.557,354.242 130.333 C 354.532 130.857,354.311 131.167,353.646 131.167 C 353.211 131.167,353.167 131.220,353.167 131.738 C 353.167 132.204,353.097 132.320,352.792 132.363 C 352.551 132.398,352.398 132.551,352.363 132.792 C 352.329 133.033,352.195 133.167,351.988 133.167 C 351.756 133.167,351.667 133.283,351.667 133.583 C 351.667 133.843,351.572 134.000,351.417 134.000 C 351.249 134.000,351.167 134.167,351.167 134.505 C 351.167 135.132,350.806 135.296,350.241 134.926 C 349.734 134.594,349.167 134.726,349.167 135.178 C 349.167 135.477,349.034 135.500,347.271 135.500 C 346.228 135.500,345.141 135.547,344.854 135.604 C 344.377 135.700,344.333 135.672,344.333 135.271 C 344.333 134.973,344.426 134.827,344.625 134.814 C 344.900 134.796,344.900 134.790,344.627 134.719 C 344.356 134.648,344.335 133.876,344.294 122.655 L 344.250 110.667 346.448 110.667 C 347.734 110.667,348.690 110.597,348.750 110.500 C 348.889 110.274,349.223 110.290,349.467 110.533 M149.167 117.917 C 149.167 118.753,149.490 118.892,150.434 118.462 C 150.827 118.283,150.908 118.297,151.067 118.572 C 151.168 118.745,151.362 119.006,151.500 119.152 C 151.907 119.583,151.779 134.662,151.369 134.677 C 151.158 134.685,151.181 134.727,151.458 134.839 C 151.892 135.013,151.966 135.626,151.571 135.778 C 151.426 135.833,151.240 136.056,151.158 136.273 C 151.006 136.673,150.444 136.814,150.250 136.500 C 149.881 135.903,149.149 136.339,149.199 137.125 L 149.250 137.917 154.417 137.961 L 159.583 138.005 159.526 137.169 C 159.478 136.479,159.413 136.333,159.151 136.333 C 158.976 136.333,158.833 136.263,158.833 136.177 C 158.833 136.091,158.590 135.998,158.293 135.969 C 157.686 135.910,157.509 135.522,157.823 134.935 C 158.012 134.582,158.022 123.398,157.833 122.833 C 157.773 122.651,157.897 122.569,158.292 122.531 C 158.627 122.499,158.833 122.388,158.833 122.239 C 158.833 122.108,158.941 122.000,159.073 122.000 C 159.221 122.000,159.332 121.794,159.364 121.458 C 159.410 120.981,159.466 120.926,159.833 120.993 C 160.399 121.096,162.172 121.100,162.583 120.999 C 162.881 120.925,162.912 120.991,162.873 121.614 C 162.833 122.262,162.862 122.315,163.287 122.364 C 163.891 122.434,164.148 123.110,163.866 123.889 C 163.612 124.592,163.582 134.095,163.833 134.250 C 164.144 134.442,164.025 135.482,163.667 135.705 C 163.483 135.820,163.333 135.996,163.333 136.098 C 163.333 136.549,162.770 136.819,162.333 136.576 C 161.455 136.089,161.142 136.240,161.199 137.125 L 161.250 137.917 166.250 137.961 L 171.250 138.005 171.192 137.169 C 171.160 136.709,171.072 136.333,170.996 136.333 C 170.919 136.333,170.833 136.165,170.803 135.958 C 170.769 135.717,170.616 135.564,170.375 135.530 L 170.000 135.477 170.000 128.655 L 170.000 121.833 169.503 121.833 C 168.929 121.833,168.640 121.181,168.976 120.644 C 169.290 120.141,169.207 119.833,168.756 119.833 C 168.499 119.833,168.271 119.693,168.148 119.458 C 168.040 119.252,167.850 119.023,167.726 118.950 C 167.602 118.877,167.500 118.633,167.500 118.408 C 167.500 117.947,167.131 117.872,166.429 118.191 C 165.909 118.428,165.500 118.152,165.500 117.563 C 165.500 117.174,165.472 117.167,163.927 117.167 L 162.354 117.167 162.302 117.708 C 162.247 118.278,162.198 118.295,161.221 118.080 C 160.731 117.972,160.688 117.998,160.638 118.440 C 160.585 118.904,160.560 118.915,159.708 118.870 C 158.925 118.828,158.833 118.859,158.833 119.162 C 158.833 119.411,158.724 119.500,158.417 119.500 C 158.012 119.500,158.000 119.467,158.000 118.333 L 158.000 117.167 153.583 117.167 L 149.167 117.167 149.167 117.917 M201.167 117.583 C 201.167 117.988,201.133 118.000,200.000 118.000 C 198.867 118.000,198.833 118.012,198.833 118.417 C 198.833 118.667,198.738 118.833,198.594 118.833 C 198.458 118.833,198.333 119.029,198.303 119.292 C 198.265 119.624,198.144 119.765,197.865 119.805 C 197.653 119.835,197.433 119.985,197.375 120.138 C 197.318 120.291,197.179 120.492,197.066 120.583 C 196.954 120.675,196.835 120.899,196.804 121.082 C 196.766 121.300,196.575 121.444,196.248 121.502 C 195.800 121.581,195.750 121.652,195.750 122.212 C 195.750 122.779,195.710 122.834,195.292 122.833 C 194.812 122.833,194.565 124.314,195.000 124.583 C 195.500 124.892,194.960 126.563,194.395 126.455 C 194.011 126.382,194.000 126.411,194.000 127.500 C 194.000 128.586,194.012 128.618,194.391 128.546 C 194.886 128.451,195.334 129.710,195.016 130.303 C 194.612 131.058,194.784 133.167,195.250 133.167 C 195.556 133.167,195.667 133.256,195.667 133.500 C 195.667 133.746,195.778 133.833,196.092 133.833 C 196.495 133.833,196.514 133.874,196.467 134.625 L 196.417 135.417 197.250 135.417 C 198.035 135.417,198.086 135.443,198.136 135.875 C 198.173 136.199,198.283 136.333,198.511 136.333 C 198.747 136.333,198.833 136.449,198.833 136.765 C 198.833 137.224,198.954 137.235,201.000 136.971 C 201.362 136.924,201.424 136.988,201.469 137.463 L 201.522 138.010 203.719 137.963 C 205.855 137.918,205.918 137.906,205.970 137.542 C 206.015 137.227,206.126 137.167,206.668 137.167 C 207.273 137.167,207.315 137.134,207.364 136.625 C 207.394 136.320,207.503 136.100,207.614 136.121 C 209.085 136.404,209.167 136.395,209.167 135.938 C 209.167 135.582,209.245 135.500,209.583 135.500 C 209.917 135.500,210.000 135.417,210.000 135.083 C 210.000 134.750,210.083 134.667,210.417 134.667 C 210.722 134.667,210.833 134.578,210.833 134.333 C 210.833 134.117,210.944 134.000,211.149 134.000 C 211.537 134.000,211.667 133.687,211.667 132.750 C 211.667 131.636,211.565 131.500,210.732 131.500 C 210.062 131.500,210.000 131.535,210.000 131.917 C 210.000 132.250,209.917 132.333,209.583 132.333 C 209.250 132.333,209.167 132.417,209.167 132.750 C 209.167 133.133,209.106 133.167,208.417 133.167 C 207.728 133.167,207.667 133.201,207.667 133.583 L 207.667 134.000 205.833 134.028 C 204.825 134.043,203.869 134.062,203.708 134.069 C 203.510 134.079,203.400 133.937,203.364 133.625 C 203.334 133.363,203.209 133.167,203.072 133.167 C 202.941 133.167,202.833 133.050,202.833 132.907 C 202.833 132.764,202.754 132.696,202.657 132.756 C 202.285 132.986,201.667 132.674,201.667 132.257 C 201.667 132.035,201.742 131.807,201.833 131.750 C 202.192 131.528,201.996 131.167,201.518 131.167 C 200.971 131.167,200.747 130.805,201.001 130.332 C 201.092 130.162,201.167 129.456,201.167 128.763 L 201.167 127.505 206.375 127.461 L 211.583 127.417 211.630 125.292 L 211.677 123.167 211.106 123.167 C 210.421 123.167,210.211 122.794,210.580 122.232 C 210.950 121.667,210.897 121.527,210.292 121.469 C 209.708 121.413,209.675 121.284,209.928 120.042 C 210.030 119.541,210.005 119.500,209.602 119.500 C 209.278 119.500,209.167 119.415,209.167 119.167 C 209.167 118.779,208.680 118.718,208.164 119.040 C 207.723 119.316,207.268 119.034,207.197 118.442 C 207.152 118.060,207.067 118.000,206.572 118.000 C 206.073 118.000,206.000 117.947,206.000 117.583 L 206.000 117.167 203.583 117.167 L 201.167 117.167 201.167 117.583 M216.399 117.403 C 216.111 118.153,216.393 118.582,217.208 118.634 C 217.923 118.680,218.000 118.725,218.000 119.092 C 218.000 119.416,218.086 119.500,218.417 119.500 L 218.833 119.500 218.833 127.072 C 218.833 131.931,218.896 134.809,219.007 135.103 C 219.156 135.492,219.125 135.617,218.799 135.939 C 218.589 136.147,218.316 136.438,218.193 136.585 C 217.988 136.830,217.935 136.829,217.558 136.582 C 216.703 136.022,216.136 136.523,216.406 137.600 L 216.506 138.000 222.420 138.000 L 228.333 138.000 228.333 137.151 L 228.333 136.302 227.458 136.379 C 226.977 136.421,226.414 136.512,226.207 136.581 C 225.888 136.687,225.803 136.628,225.653 136.200 C 225.556 135.921,225.375 135.654,225.251 135.607 C 224.953 135.492,225.120 134.873,225.475 134.778 C 225.716 134.714,225.714 134.703,225.458 134.686 C 225.187 134.668,225.166 134.295,225.155 129.458 C 225.149 126.594,225.083 124.100,225.009 123.917 C 224.837 123.490,225.093 123.167,225.604 123.167 C 226.064 123.167,226.089 123.043,225.759 122.407 C 225.406 121.727,226.594 120.472,227.209 120.874 C 227.474 121.048,227.703 121.077,227.987 120.972 C 228.584 120.751,228.781 121.037,228.523 121.749 C 228.284 122.409,228.374 122.667,228.843 122.667 C 229.077 122.667,229.167 122.782,229.167 123.083 C 229.167 123.417,229.250 123.500,229.583 123.500 C 229.917 123.500,230.000 123.583,230.000 123.917 C 230.000 124.332,230.006 124.333,231.583 124.333 C 233.161 124.333,233.167 124.332,233.167 123.917 C 233.167 123.583,233.250 123.500,233.583 123.500 C 234.068 123.500,234.127 123.153,233.771 122.401 C 233.548 121.928,233.596 120.991,233.927 119.375 C 234.033 118.856,234.016 118.833,233.519 118.833 C 233.077 118.833,233.000 118.772,233.000 118.417 C 233.000 118.111,232.911 118.000,232.667 118.000 C 232.422 118.000,232.333 117.889,232.333 117.583 C 232.333 117.170,232.322 117.167,230.833 117.167 C 229.344 117.167,229.333 117.170,229.333 117.583 C 229.333 117.922,229.251 118.000,228.897 118.000 C 228.523 118.000,228.472 117.941,228.540 117.588 C 228.583 117.362,228.554 117.216,228.476 117.265 C 228.397 117.313,228.333 117.490,228.333 117.657 C 228.333 117.824,228.186 118.000,228.006 118.047 C 227.780 118.106,227.700 118.240,227.747 118.483 C 227.809 118.804,227.739 118.833,226.907 118.833 C 226.130 118.833,226.000 118.878,226.000 119.147 C 226.000 119.350,225.852 119.489,225.583 119.541 C 225.169 119.620,225.167 119.612,225.167 118.394 L 225.167 117.167 220.828 117.167 C 217.240 117.167,216.474 117.207,216.399 117.403 M253.167 117.931 L 253.167 118.695 254.125 118.639 C 254.999 118.588,255.088 118.615,255.134 118.941 C 255.162 119.138,255.312 119.333,255.468 119.373 C 255.907 119.488,255.813 134.603,255.372 134.719 C 255.101 134.790,255.101 134.796,255.375 134.814 C 255.881 134.848,255.761 135.667,255.250 135.667 C 254.944 135.667,254.833 135.756,254.833 136.000 C 254.833 136.289,254.722 136.333,253.991 136.333 L 253.148 136.333 253.199 137.125 L 253.250 137.917 258.250 137.961 L 263.250 138.005 263.192 137.169 C 263.160 136.709,263.072 136.333,262.996 136.333 C 262.919 136.333,262.833 136.165,262.803 135.958 C 262.769 135.717,262.616 135.564,262.375 135.530 L 262.000 135.477 262.000 126.322 L 262.000 117.167 257.583 117.167 L 253.167 117.167 253.167 117.931 M273.167 117.583 C 273.167 117.948,273.094 118.000,272.583 118.000 C 272.086 118.000,272.000 118.056,272.000 118.383 C 272.000 118.843,271.711 119.167,271.300 119.167 C 271.135 119.167,271.000 119.279,271.000 119.417 C 271.000 119.583,270.833 119.667,270.500 119.667 C 270.111 119.667,270.000 119.741,270.000 120.000 C 270.000 120.244,269.889 120.333,269.583 120.333 C 269.062 120.333,268.986 121.491,269.454 122.308 C 269.710 122.753,269.717 122.889,269.515 123.529 C 269.047 125.021,269.075 126.667,269.570 126.667 C 269.918 126.667,270.000 126.747,270.000 127.083 C 270.000 127.417,270.083 127.500,270.417 127.500 C 270.750 127.500,270.833 127.583,270.833 127.917 C 270.833 128.389,271.270 128.480,271.836 128.126 C 272.281 127.848,272.732 128.135,272.804 128.740 C 272.860 129.206,273.034 129.232,273.894 128.902 C 274.176 128.794,274.454 129.503,274.256 129.824 C 274.101 130.074,274.670 130.033,275.166 129.758 C 275.668 129.480,276.000 129.684,276.000 130.270 C 276.000 130.715,276.131 130.752,276.737 130.475 C 277.258 130.238,277.667 130.515,277.667 131.104 C 277.667 131.322,277.742 131.500,277.833 131.500 C 277.925 131.500,278.000 131.688,278.000 131.917 C 278.000 132.250,278.083 132.333,278.417 132.333 C 278.821 132.333,278.833 132.368,278.833 133.482 C 278.833 134.568,278.811 134.636,278.417 134.735 C 278.148 134.803,278.000 134.957,278.000 135.170 C 278.000 135.481,277.882 135.500,276.000 135.500 C 274.134 135.500,274.000 135.478,274.000 135.178 C 274.000 134.754,273.485 134.605,272.916 134.864 C 272.510 135.049,272.428 135.031,272.162 134.702 C 271.998 134.499,271.791 134.333,271.702 134.333 C 271.305 134.333,271.190 133.903,271.446 133.374 C 271.752 132.744,271.643 132.333,271.172 132.333 C 270.864 132.333,270.833 132.228,270.833 131.167 L 270.833 130.000 270.266 130.000 C 269.783 130.000,269.711 130.049,269.783 130.327 C 269.832 130.514,269.745 130.779,269.580 130.944 C 269.341 131.183,269.309 131.419,269.394 132.325 C 269.451 132.925,269.498 134.452,269.499 135.718 L 269.500 138.020 270.125 137.968 C 270.627 137.927,270.760 137.843,270.803 137.542 C 270.854 137.183,270.926 137.167,272.417 137.167 C 273.908 137.167,273.979 137.183,274.030 137.542 C 274.082 137.907,274.142 137.918,276.347 137.963 L 278.610 138.009 278.539 137.524 C 278.458 136.968,278.622 136.809,279.138 136.944 C 279.357 137.001,279.508 137.179,279.519 137.394 C 279.535 137.676,279.555 137.689,279.615 137.458 C 279.673 137.236,279.866 137.167,280.429 137.167 C 281.105 137.167,281.167 137.132,281.167 136.750 C 281.167 136.417,281.250 136.333,281.583 136.333 C 281.917 136.333,282.000 136.250,282.000 135.917 C 282.000 135.578,282.082 135.500,282.438 135.500 C 282.869 135.500,282.874 135.486,282.763 134.647 L 282.650 133.793 283.162 133.868 L 283.674 133.943 283.629 131.180 C 283.584 128.480,283.575 128.415,283.219 128.365 C 282.991 128.332,282.834 128.175,282.802 127.948 C 282.769 127.717,282.612 127.564,282.375 127.530 C 282.143 127.497,282.000 127.361,282.000 127.173 C 282.000 126.988,281.837 126.829,281.583 126.765 C 281.314 126.697,281.167 126.543,281.167 126.330 C 281.167 126.051,281.053 126.000,280.428 126.000 C 279.789 126.000,279.683 125.949,279.637 125.625 C 279.591 125.305,279.467 125.243,278.792 125.199 C 278.077 125.153,278.000 125.109,278.000 124.741 C 278.000 124.363,277.939 124.333,277.167 124.333 C 276.389 124.333,276.333 124.306,276.333 123.917 C 276.333 123.534,276.272 123.500,275.583 123.500 C 274.944 123.500,274.833 123.451,274.833 123.167 C 274.833 122.922,274.722 122.833,274.417 122.833 C 274.009 122.833,274.000 122.806,274.000 121.583 C 274.000 120.361,274.009 120.333,274.417 120.333 C 274.750 120.333,274.833 120.250,274.833 119.917 C 274.833 119.501,274.839 119.500,276.417 119.500 L 278.000 119.500 278.000 119.932 C 278.000 120.349,278.031 120.362,278.866 120.307 L 279.731 120.250 279.687 121.125 C 279.646 121.914,279.676 122.000,279.988 122.000 C 280.178 122.000,280.333 122.094,280.333 122.210 C 280.333 122.336,280.550 122.419,280.875 122.418 C 281.463 122.417,281.494 122.537,281.239 123.792 L 281.129 124.333 281.981 124.333 L 282.833 124.333 282.833 120.750 L 282.833 117.167 282.000 117.167 C 281.232 117.167,281.167 117.198,281.167 117.566 C 281.167 117.949,281.108 117.969,279.792 118.050 C 279.035 118.096,278.267 118.160,278.083 118.192 C 277.814 118.239,277.740 118.146,277.698 117.708 L 277.646 117.167 275.406 117.167 L 273.167 117.167 273.167 117.583 M288.399 117.403 C 288.111 118.153,288.393 118.582,289.208 118.634 C 289.923 118.680,290.000 118.725,290.000 119.092 C 290.000 119.416,290.086 119.500,290.417 119.500 L 290.833 119.500 290.833 132.333 L 290.833 145.167 290.417 145.167 C 290.086 145.167,290.000 145.251,290.000 145.574 C 290.000 145.942,289.923 145.987,289.208 146.033 L 288.417 146.083 288.417 146.750 L 288.417 147.417 294.351 147.460 L 300.285 147.504 300.268 146.794 L 300.250 146.083 299.542 146.032 C 298.916 145.987,298.833 145.934,298.833 145.574 C 298.833 145.251,298.747 145.167,298.417 145.167 C 298.069 145.167,298.000 145.087,298.000 144.690 C 298.000 144.276,297.947 144.223,297.598 144.290 C 297.042 144.396,296.742 143.835,296.984 143.142 C 297.082 142.859,297.165 141.092,297.173 139.088 L 297.188 135.535 297.607 135.455 C 297.862 135.406,298.059 135.460,298.110 135.592 C 298.156 135.712,298.412 135.886,298.680 135.980 C 299.074 136.117,299.167 136.246,299.167 136.658 C 299.167 137.125,299.213 137.167,299.732 137.167 C 300.196 137.167,300.316 137.241,300.402 137.583 C 300.506 137.998,300.518 138.000,302.420 138.000 L 304.333 138.000 304.333 137.583 C 304.333 137.208,304.400 137.167,305.000 137.167 C 305.591 137.167,305.667 137.122,305.667 136.770 C 305.667 136.175,306.007 135.969,306.613 136.198 C 307.236 136.433,307.667 136.286,307.667 135.839 C 307.667 135.607,307.776 135.500,308.012 135.500 C 308.324 135.500,308.352 135.416,308.304 134.625 C 308.252 133.779,308.265 133.748,308.708 133.697 C 308.971 133.667,309.167 133.542,309.167 133.406 C 309.167 133.262,309.333 133.167,309.583 133.167 C 310.080 133.167,310.187 132.011,309.766 131.197 C 309.408 130.505,309.810 129.613,310.411 129.763 L 310.833 129.869 310.833 127.053 L 310.833 124.237 310.398 124.243 C 309.744 124.253,309.438 123.711,309.755 123.102 C 310.183 122.275,310.085 121.167,309.583 121.167 C 309.324 121.167,309.167 121.072,309.167 120.917 C 309.167 120.760,309.009 120.667,308.746 120.667 C 308.449 120.667,308.278 120.542,308.165 120.246 C 308.077 120.014,307.891 119.781,307.753 119.728 C 307.614 119.675,307.500 119.452,307.500 119.232 C 307.500 118.944,307.407 118.833,307.167 118.833 C 306.922 118.833,306.833 118.722,306.833 118.417 C 306.833 118.028,306.778 118.000,306.000 118.000 C 305.220 118.000,305.167 117.973,305.167 117.579 L 305.167 117.158 302.792 117.204 C 300.472 117.249,300.415 117.259,300.363 117.625 C 300.320 117.929,300.204 118.000,299.749 118.000 C 299.238 118.000,299.183 118.048,299.136 118.542 C 299.090 119.018,299.018 119.090,298.542 119.136 C 298.244 119.164,298.000 119.258,298.000 119.344 C 298.000 119.430,297.887 119.500,297.750 119.500 C 297.574 119.500,297.500 119.677,297.500 120.096 C 297.500 120.574,297.443 120.680,297.208 120.632 C 297.004 120.591,296.934 120.449,296.974 120.161 C 297.006 119.935,297.068 119.169,297.112 118.458 L 297.192 117.167 292.841 117.167 C 289.242 117.167,288.474 117.207,288.399 117.403 M205.380 119.765 C 205.360 119.940,205.295 120.327,205.236 120.625 C 205.137 121.125,205.162 121.167,205.564 121.167 L 206.000 121.167 206.000 123.167 L 206.000 125.167 203.594 125.167 C 202.271 125.167,200.999 125.239,200.767 125.327 C 200.214 125.537,200.103 125.338,200.245 124.390 C 200.349 123.695,200.390 123.645,200.762 123.738 C 201.165 123.839,201.167 123.835,201.167 122.503 C 201.167 121.189,201.174 121.167,201.583 121.167 C 202.047 121.167,202.122 120.841,201.832 120.080 C 201.586 119.433,201.636 119.415,203.609 119.431 C 205.286 119.445,205.414 119.469,205.380 119.765 M302.000 120.750 C 302.000 121.083,302.083 121.167,302.417 121.167 C 302.667 121.167,302.833 121.262,302.833 121.406 C 302.833 121.542,303.029 121.667,303.292 121.697 C 303.645 121.738,303.747 121.836,303.738 122.125 C 303.732 122.331,303.713 124.712,303.696 127.417 L 303.667 132.333 303.250 132.333 C 302.861 132.333,302.833 132.389,302.833 133.167 C 302.833 133.944,302.806 134.000,302.417 134.000 C 302.117 134.000,302.000 134.090,302.000 134.321 C 302.000 134.603,301.844 134.651,300.708 134.721 C 299.998 134.765,299.229 134.827,299.000 134.859 C 298.652 134.907,298.575 134.841,298.531 134.458 C 298.500 134.196,298.376 134.000,298.239 134.000 C 298.101 134.000,298.000 133.839,298.000 133.618 C 298.000 133.332,297.907 133.238,297.625 133.243 C 297.130 133.252,297.167 133.685,297.167 127.833 L 297.167 122.667 297.583 122.667 C 297.884 122.667,298.000 122.577,298.000 122.345 C 298.000 122.138,298.134 122.004,298.375 121.970 C 298.612 121.936,298.769 121.783,298.802 121.552 C 298.834 121.325,298.991 121.168,299.219 121.135 C 299.449 121.102,299.603 120.946,299.637 120.708 C 299.724 120.094,302.000 120.134,302.000 120.750 M317.500 127.917 L 317.500 130.672 322.542 130.627 L 327.583 130.583 327.583 127.917 L 327.583 125.250 322.542 125.206 L 317.500 125.162 317.500 127.917 " stroke="none" fill="#cc0837" fill-rule="evenodd"></path><path id="path2" d="M98.944 8.444 C 98.883 8.506,98.833 8.881,98.833 9.278 C 98.833 9.937,98.797 10.000,98.417 10.000 C 98.028 10.000,98.000 10.056,98.000 10.833 L 98.000 11.667 87.583 11.667 L 77.167 11.667 77.167 12.067 C 77.167 12.806,77.559 12.833,88.067 12.832 C 96.479 12.831,97.986 12.795,98.394 12.582 C 98.657 12.445,99.192 12.333,99.583 12.333 C 99.975 12.333,100.510 12.445,100.773 12.582 C 101.161 12.785,102.107 12.833,105.833 12.842 C 108.354 12.848,110.717 12.906,111.083 12.971 L 111.750 13.089 111.750 14.482 L 111.750 15.874 95.550 15.844 C 86.640 15.828,78.333 15.867,77.091 15.931 L 74.833 16.048 74.833 21.024 L 74.833 26.000 65.250 26.000 L 55.667 26.000 55.667 26.417 C 55.667 26.806,55.611 26.833,54.833 26.833 L 54.000 26.833 54.000 27.650 C 54.000 28.875,53.621 28.833,64.850 28.833 C 76.069 28.833,75.500 28.902,75.500 27.548 L 75.500 26.649 76.375 26.700 L 77.250 26.750 77.301 27.633 C 77.370 28.850,77.283 28.833,83.657 28.833 C 86.664 28.833,89.359 28.880,89.646 28.938 L 90.167 29.042 90.167 30.344 C 90.167 31.121,90.092 31.693,89.981 31.762 C 89.879 31.825,82.573 31.862,73.746 31.845 C 64.918 31.828,56.677 31.866,55.431 31.931 L 53.167 32.048 53.167 38.608 L 53.167 45.167 47.583 45.167 L 42.000 45.167 42.000 45.583 C 42.000 45.965,41.938 46.000,41.268 46.000 C 40.459 46.000,40.333 46.147,40.333 47.097 C 40.333 47.556,40.268 47.667,40.000 47.667 C 39.671 47.667,39.667 47.778,39.667 56.497 L 39.667 65.327 40.042 65.408 C 41.171 65.652,43.779 65.711,57.917 65.809 L 73.417 65.917 73.565 67.129 C 73.647 67.796,73.659 68.396,73.593 68.463 C 73.453 68.602,37.772 68.722,37.208 68.585 C 36.948 68.522,36.833 68.370,36.833 68.091 C 36.833 67.117,36.571 66.833,35.671 66.833 L 34.833 66.833 34.833 67.572 C 34.833 68.211,34.783 68.317,34.458 68.363 L 34.083 68.417 34.041 81.958 L 33.998 95.500 34.416 95.500 C 34.806 95.500,34.833 95.555,34.833 96.333 L 34.833 97.167 35.677 97.167 C 36.140 97.167,36.478 97.235,36.426 97.318 C 36.112 97.826,36.541 98.000,38.101 98.000 L 39.667 98.000 39.667 107.583 C 39.667 117.056,39.671 117.167,40.000 117.167 C 40.257 117.167,40.333 117.278,40.333 117.653 C 40.333 118.514,40.474 118.667,41.268 118.667 C 41.938 118.667,42.000 118.702,42.000 119.083 L 42.000 119.500 49.167 119.500 L 56.333 119.500 56.333 123.653 C 56.333 128.065,56.363 128.333,56.842 128.333 C 57.089 128.333,57.158 128.486,57.199 129.125 L 57.250 129.917 58.042 129.967 C 58.697 130.010,58.833 130.074,58.833 130.342 C 58.833 130.660,59.031 130.667,68.000 130.667 L 77.167 130.667 77.167 135.083 L 77.167 139.500 77.574 139.500 C 77.942 139.500,77.987 139.577,78.033 140.292 L 78.083 141.083 78.865 141.134 C 79.523 141.176,79.654 141.241,79.698 141.550 L 79.750 141.917 98.417 141.917 L 117.083 141.917 117.135 141.550 C 117.179 141.241,117.310 141.176,117.969 141.134 L 118.750 141.083 118.801 140.292 C 118.842 139.653,118.911 139.500,119.158 139.500 C 119.664 139.500,119.667 139.436,119.667 125.917 C 119.667 112.359,119.666 112.333,119.149 112.333 C 118.886 112.333,118.833 112.208,118.833 111.583 L 118.833 110.833 118.000 110.833 C 117.222 110.833,117.167 110.806,117.167 110.417 L 117.167 110.000 108.003 110.000 L 98.839 110.000 98.794 105.625 C 98.750 101.261,98.749 101.250,98.384 101.198 C 98.075 101.154,98.010 101.023,97.967 100.365 L 97.917 99.583 97.125 99.533 C 96.469 99.490,96.333 99.426,96.333 99.158 C 96.333 98.841,96.155 98.833,89.169 98.833 L 82.006 98.833 81.961 94.458 L 81.917 90.083 81.542 90.030 C 81.211 89.983,81.167 89.880,81.167 89.155 L 81.167 88.333 80.351 88.333 C 79.404 88.333,79.345 88.415,79.188 89.917 L 79.083 90.917 61.083 90.962 C 51.183 90.988,42.915 90.967,42.708 90.918 C 42.369 90.836,42.333 90.728,42.333 89.779 C 42.333 88.005,40.491 88.187,59.083 88.129 C 71.400 88.091,75.529 88.029,75.875 87.877 L 76.333 87.675 76.333 82.421 L 76.333 77.167 77.913 77.167 C 79.460 77.167,79.496 77.158,79.598 76.750 C 79.690 76.385,79.793 76.333,80.435 76.333 L 81.167 76.333 81.167 75.601 C 81.167 74.960,81.218 74.857,81.583 74.765 L 82.000 74.660 82.000 64.330 L 82.000 54.000 84.747 54.000 L 87.494 54.000 87.598 53.583 C 87.690 53.218,87.793 53.167,88.435 53.167 L 89.167 53.167 89.167 52.333 C 89.167 51.556,89.194 51.500,89.583 51.500 L 90.000 51.500 90.000 45.500 L 90.000 39.500 100.000 39.500 C 109.889 39.500,110.000 39.496,110.000 39.167 C 110.000 38.883,110.111 38.833,110.750 38.833 C 111.225 38.833,111.509 38.757,111.525 38.625 C 111.539 38.510,111.568 38.342,111.589 38.250 C 111.611 38.158,111.637 37.877,111.647 37.625 C 111.662 37.284,111.752 37.167,112.000 37.167 C 112.289 37.167,112.333 37.056,112.333 36.336 L 112.333 35.505 117.708 35.461 L 123.083 35.417 123.138 35.028 C 123.198 34.605,122.776 34.181,122.288 34.172 C 122.051 34.168,121.667 33.591,121.667 33.239 C 121.667 33.199,124.517 33.167,128.000 33.167 C 131.483 33.167,134.333 33.199,134.333 33.239 C 134.333 33.591,133.949 34.168,133.712 34.172 C 133.224 34.181,132.802 34.605,132.862 35.028 L 132.917 35.417 137.039 35.461 L 141.162 35.506 141.206 40.295 L 141.250 45.083 141.616 45.135 C 141.925 45.179,141.990 45.310,142.033 45.969 L 142.083 46.750 142.875 46.801 C 143.531 46.843,143.667 46.907,143.667 47.176 C 143.667 47.492,143.845 47.500,150.833 47.500 L 158.000 47.500 158.000 55.500 L 158.000 63.500 158.408 63.500 C 158.775 63.500,158.820 63.577,158.866 64.292 L 158.917 65.083 159.609 65.134 C 160.185 65.176,160.319 65.253,160.404 65.592 C 160.504 65.989,160.549 66.000,162.087 66.000 L 163.667 66.000 163.667 74.750 C 163.667 83.389,163.671 83.500,164.000 83.500 C 164.268 83.500,164.333 83.611,164.333 84.070 C 164.333 85.017,164.460 85.167,165.256 85.167 C 165.877 85.167,165.984 85.219,166.030 85.542 L 166.083 85.917 184.000 85.917 L 201.917 85.917 201.970 85.542 C 202.016 85.219,202.123 85.167,202.744 85.167 C 203.540 85.167,203.667 85.017,203.667 84.070 C 203.667 83.611,203.732 83.500,204.000 83.500 C 204.330 83.500,204.333 83.389,204.333 72.333 C 204.333 61.278,204.330 61.167,204.000 61.167 C 203.769 61.167,203.663 61.051,203.654 60.792 C 203.618 59.743,203.557 59.665,202.680 59.547 C 202.160 59.478,202.000 59.383,202.000 59.145 C 202.000 58.863,201.852 58.833,200.418 58.833 L 198.836 58.833 198.793 50.042 L 198.750 41.250 198.375 41.197 C 198.051 41.151,198.000 41.044,198.000 40.405 C 198.000 39.428,197.255 39.305,196.833 40.212 L 196.583 40.750 189.686 40.794 C 181.980 40.842,182.333 40.897,182.333 39.646 C 182.333 39.199,182.258 38.833,182.167 38.833 C 182.058 38.833,182.000 36.587,182.000 32.427 C 182.000 27.483,181.952 25.989,181.792 25.887 C 181.300 25.573,178.736 25.461,170.507 25.393 C 162.797 25.330,161.729 25.290,161.469 25.056 C 161.200 24.812,161.140 24.812,160.760 25.061 C 160.530 25.212,160.008 25.333,159.589 25.333 L 158.833 25.333 158.833 24.417 L 158.833 23.500 159.625 23.505 C 160.060 23.508,160.562 23.621,160.740 23.755 C 161.474 24.310,179.667 24.062,179.667 23.497 C 179.667 22.814,179.940 22.833,170.316 22.833 L 161.167 22.833 161.167 18.000 L 161.167 13.167 160.750 13.167 C 160.367 13.167,160.333 13.106,160.333 12.417 L 160.333 11.667 159.583 11.667 C 158.894 11.667,158.833 11.633,158.833 11.250 C 158.833 10.885,158.761 10.833,158.250 10.833 L 157.667 10.833 157.667 11.646 C 157.667 12.914,158.340 12.841,147.065 12.793 L 136.917 12.750 136.867 11.792 L 136.817 10.833 136.260 10.833 C 135.805 10.833,135.684 10.757,135.598 10.417 C 135.531 10.148,135.377 10.000,135.163 10.000 C 134.884 10.000,134.833 9.887,134.833 9.261 C 134.833 8.649,134.771 8.503,134.471 8.407 C 133.871 8.217,133.647 8.728,133.702 10.165 L 133.750 11.417 134.292 11.469 C 134.830 11.521,134.833 11.527,134.833 12.427 L 134.833 13.333 134.000 13.333 L 133.167 13.333 133.167 12.339 C 133.167 10.883,134.530 10.991,116.295 11.005 L 100.083 11.018 99.988 9.967 C 99.855 8.498,99.463 7.926,98.944 8.444 M132.630 11.625 C 132.696 11.785,132.750 16.567,132.750 22.250 L 132.750 32.583 122.615 32.721 C 114.428 32.832,112.431 32.817,112.221 32.643 C 111.991 32.452,111.969 31.347,112.022 22.756 C 112.085 12.445,112.107 12.750,111.290 12.581 C 110.993 12.520,110.429 12.364,110.036 12.235 C 109.499 12.058,108.292 12.000,105.171 12.000 C 101.170 12.000,100.646 11.938,100.917 11.500 C 101.127 11.159,132.490 11.283,132.630 11.625 M158.229 13.753 C 158.539 14.063,158.602 32.248,158.295 32.626 C 158.075 32.895,135.707 32.898,135.375 32.628 C 135.079 32.388,135.071 13.996,135.367 13.700 C 135.702 13.365,157.892 13.416,158.229 13.753 M109.473 16.313 C 109.744 16.485,109.723 36.268,109.451 36.625 C 109.225 36.922,89.996 36.930,89.700 36.633 C 89.566 36.500,89.500 35.766,89.501 34.425 L 89.502 32.417 90.001 32.133 C 90.498 31.850,90.500 31.842,90.500 30.332 L 90.500 28.816 90.004 28.643 C 89.732 28.548,89.349 28.212,89.154 27.896 C 88.959 27.581,88.527 27.137,88.194 26.911 L 87.589 26.500 82.849 26.500 C 78.673 26.500,78.073 26.467,77.805 26.224 C 77.417 25.873,77.325 16.432,77.708 16.277 C 78.072 16.130,109.240 16.165,109.473 16.313 M170.709 25.833 L 179.169 25.833 179.126 35.292 L 179.083 44.750 161.917 44.791 C 152.475 44.814,144.581 44.794,144.375 44.746 L 144.000 44.660 144.000 40.101 C 144.000 36.557,144.048 35.501,144.217 35.361 C 144.363 35.239,146.775 35.164,151.592 35.132 C 161.158 35.067,160.715 35.338,160.806 29.500 C 160.867 25.609,160.906 25.448,161.716 25.681 C 162.008 25.765,166.055 25.833,170.709 25.833 M87.083 41.667 L 87.083 51.083 84.522 51.129 C 81.365 51.186,81.500 51.274,81.500 49.171 C 81.500 47.649,81.471 47.510,81.019 46.887 C 80.091 45.605,80.758 45.667,67.883 45.667 C 59.174 45.667,56.352 45.618,56.200 45.467 C 55.982 45.249,55.897 32.492,56.112 32.277 C 56.174 32.215,63.167 32.184,71.654 32.207 L 87.083 32.250 87.083 41.667 M111.667 34.000 L 111.667 34.833 110.833 34.833 L 110.000 34.833 110.000 34.000 L 110.000 33.167 110.833 33.167 L 111.667 33.167 111.667 34.000 M143.667 34.000 L 143.667 34.833 142.750 34.833 L 141.833 34.833 141.833 34.000 L 141.833 33.167 142.750 33.167 L 143.667 33.167 143.667 34.000 M89.333 38.000 L 89.333 38.833 88.417 38.833 L 87.500 38.833 87.500 38.000 L 87.500 37.167 88.417 37.167 L 89.333 37.167 89.333 38.000 M181.300 40.375 L 181.250 41.250 180.417 41.250 L 179.583 41.250 179.533 40.375 L 179.483 39.500 180.417 39.500 L 181.351 39.500 181.300 40.375 M195.823 41.738 C 195.972 41.917,196.008 44.582,195.968 52.529 L 195.917 63.083 178.417 63.083 L 160.917 63.083 160.917 55.167 L 160.917 47.250 170.250 47.167 C 180.748 47.073,180.014 47.168,181.024 45.773 C 181.464 45.167,181.500 45.002,181.500 43.613 C 181.500 41.304,180.818 41.500,188.839 41.500 C 194.512 41.500,195.658 41.539,195.823 41.738 M160.500 46.000 L 160.500 46.833 159.583 46.833 L 158.667 46.833 158.667 46.000 L 158.667 45.167 159.583 45.167 L 160.500 45.167 160.500 46.000 M55.907 46.089 C 56.184 46.298,57.841 46.333,67.435 46.333 C 73.597 46.333,78.758 46.379,78.903 46.434 C 79.114 46.516,79.167 46.813,79.167 47.935 L 79.167 49.335 60.792 49.292 L 42.417 49.250 42.366 48.172 C 42.338 47.579,42.358 46.923,42.411 46.713 L 42.506 46.333 47.971 46.333 C 52.518 46.333,53.491 46.292,53.760 46.089 C 53.938 45.954,54.421 45.844,54.833 45.844 C 55.246 45.844,55.729 45.954,55.907 46.089 M79.126 62.042 L 79.083 74.250 77.583 74.250 L 76.083 74.250 76.000 71.333 C 75.906 68.071,75.727 67.525,74.534 66.880 C 74.233 66.717,73.945 66.420,73.894 66.221 C 73.660 65.287,74.552 65.339,57.821 65.293 L 42.417 65.250 42.373 57.750 C 42.349 53.625,42.366 50.156,42.410 50.042 C 42.473 49.877,46.311 49.833,60.829 49.833 L 79.169 49.833 79.126 62.042 M81.300 52.375 L 81.250 53.250 80.417 53.250 L 79.583 53.250 79.533 52.375 L 79.483 51.500 80.417 51.500 L 81.351 51.500 81.300 52.375 M198.134 60.375 L 198.083 61.250 197.208 61.300 L 196.333 61.351 196.333 60.425 L 196.333 59.500 197.259 59.500 L 198.184 59.500 198.134 60.375 M201.467 61.700 C 201.756 61.989,201.756 82.678,201.467 82.967 C 201.176 83.257,166.824 83.257,166.533 82.967 C 166.245 82.678,166.245 65.988,166.533 65.700 C 166.686 65.547,170.230 65.500,181.469 65.500 L 196.205 65.500 196.869 65.127 C 197.732 64.642,198.333 63.622,198.333 62.644 C 198.333 62.235,198.423 61.810,198.533 61.700 C 198.801 61.433,201.199 61.433,201.467 61.700 M166.134 64.375 L 166.083 65.250 165.208 65.300 L 164.333 65.351 164.333 64.425 L 164.333 63.500 165.259 63.500 L 166.184 63.500 166.134 64.375 M73.625 78.324 C 73.657 85.560,73.621 87.593,73.458 87.696 C 73.344 87.769,66.319 87.829,57.848 87.831 L 42.446 87.833 41.644 88.348 C 40.277 89.225,40.093 89.693,40.026 92.451 C 39.958 95.262,40.001 95.199,38.224 95.132 L 36.917 95.083 36.874 82.041 L 36.831 68.999 55.207 69.041 L 73.583 69.083 73.625 78.324 M75.667 75.583 L 75.667 76.500 74.833 76.500 L 74.000 76.500 74.000 75.583 L 74.000 74.667 74.833 74.667 L 75.667 74.667 75.667 75.583 M79.083 95.250 L 79.083 99.083 68.988 99.167 L 58.892 99.250 58.216 99.697 C 56.828 100.616,56.833 100.581,56.833 109.019 C 56.833 114.564,56.783 116.484,56.633 116.633 C 56.316 116.951,42.777 116.918,42.513 116.599 C 42.325 116.372,42.263 91.785,42.449 91.458 C 42.488 91.388,50.747 91.351,60.802 91.374 L 79.083 91.417 79.083 95.250 M42.000 96.333 L 42.000 97.167 41.167 97.167 L 40.333 97.167 40.333 96.333 L 40.333 95.500 41.167 95.500 L 42.000 95.500 42.000 96.333 M81.606 99.749 C 82.007 99.958,83.196 99.998,89.048 99.999 L 96.013 100.000 95.965 101.458 L 95.917 102.917 77.917 102.962 C 68.017 102.988,59.745 102.967,59.535 102.916 C 59.171 102.828,59.156 102.762,59.202 101.453 L 59.250 100.083 69.083 100.000 C 76.400 99.938,79.002 99.865,79.250 99.713 C 79.714 99.430,81.033 99.450,81.606 99.749 M95.917 106.833 L 95.917 110.250 87.806 110.333 L 79.695 110.417 78.990 110.917 C 77.625 111.884,77.667 111.597,77.667 120.089 C 77.667 125.709,77.616 127.650,77.467 127.800 C 77.170 128.096,59.614 128.088,59.367 127.791 C 59.187 127.574,59.086 103.766,59.264 103.478 C 59.315 103.395,67.302 103.350,77.635 103.374 L 95.917 103.417 95.917 106.833 M98.308 110.875 C 98.468 111.034,100.654 111.103,107.633 111.167 L 116.750 111.250 116.750 112.667 L 116.750 114.083 98.417 114.083 L 80.083 114.083 80.083 112.667 L 80.083 111.250 88.033 111.167 C 94.079 111.103,96.033 111.033,96.192 110.875 C 96.306 110.760,96.782 110.667,97.250 110.667 C 97.718 110.667,98.194 110.760,98.308 110.875 M116.793 126.687 C 116.828 136.746,116.797 138.823,116.608 138.979 C 116.441 139.118,111.555 139.157,98.232 139.126 L 80.083 139.083 80.042 127.000 C 80.019 120.354,80.036 114.823,80.079 114.708 C 80.141 114.541,83.903 114.507,98.453 114.541 L 116.750 114.583 116.793 126.687 M58.833 117.917 L 58.833 118.833 58.000 118.833 L 57.167 118.833 57.167 117.917 L 57.167 117.000 58.000 117.000 L 58.833 117.000 58.833 117.917 M79.667 129.167 L 79.667 130.000 78.750 130.000 L 77.833 130.000 77.833 129.167 L 77.833 128.333 78.750 128.333 L 79.667 128.333 79.667 129.167 " stroke="none" fill="#7c7c7c" fill-rule="evenodd"></path><path id="path3" d="M101.035 11.446 C 100.869 11.512,100.864 11.587,101.013 11.766 C 101.171 11.956,102.011 12.000,105.434 12.000 C 108.633 12.000,109.813 12.056,110.288 12.232 C 110.634 12.360,111.179 12.531,111.500 12.613 L 112.083 12.763 112.021 22.548 C 111.971 30.423,112.002 32.385,112.177 32.596 C 112.387 32.849,131.237 32.823,132.473 32.567 L 132.863 32.486 132.807 22.118 C 132.775 16.416,132.689 11.656,132.615 11.542 C 132.479 11.332,101.553 11.238,101.035 11.446 M135.268 13.929 C 135.053 14.491,135.155 32.450,135.375 32.627 C 135.628 32.830,157.810 32.897,158.126 32.696 C 158.292 32.590,158.327 30.570,158.293 23.156 L 158.250 13.750 146.810 13.707 C 136.486 13.669,135.360 13.690,135.268 13.929 M77.742 16.377 C 77.698 16.493,77.681 18.761,77.706 21.419 L 77.750 26.250 82.680 26.333 L 87.610 26.417 88.230 26.890 C 88.571 27.150,89.015 27.618,89.216 27.929 C 89.418 28.241,89.677 28.497,89.792 28.498 C 90.852 28.508,91.092 31.783,90.061 32.175 C 89.604 32.349,89.436 36.203,89.867 36.633 C 90.235 37.002,109.283 36.913,109.463 36.542 C 109.723 36.006,109.735 16.479,109.475 16.314 C 109.085 16.067,77.837 16.129,77.742 16.377 M160.903 25.819 C 160.865 25.858,160.832 27.433,160.830 29.319 C 160.826 33.225,160.703 33.741,159.573 34.603 L 158.943 35.083 151.691 35.130 C 146.761 35.162,144.368 35.235,144.219 35.359 C 143.904 35.620,143.899 44.375,144.214 44.636 C 144.543 44.909,178.744 44.894,178.963 44.620 C 179.232 44.285,179.233 26.014,178.964 25.917 C 178.695 25.821,160.997 25.725,160.903 25.819 M56.076 32.375 C 56.032 32.490,56.016 35.472,56.040 39.000 L 56.083 45.417 67.750 45.500 C 80.452 45.591,79.883 45.546,80.771 46.526 C 81.409 47.230,81.561 47.727,81.656 49.417 L 81.750 51.083 84.417 51.083 L 87.083 51.083 87.083 41.667 L 87.083 32.250 71.620 32.207 C 59.320 32.174,56.140 32.208,56.076 32.375 M181.875 41.708 C 181.783 41.823,181.672 42.647,181.628 43.540 C 181.533 45.439,181.130 46.257,180.006 46.830 C 179.368 47.156,179.047 47.167,170.277 47.167 C 162.818 47.167,161.174 47.207,161.019 47.394 C 160.883 47.558,160.842 49.783,160.873 55.352 L 160.917 63.083 178.223 63.133 C 189.775 63.166,195.598 63.126,195.734 63.013 C 196.027 62.770,196.115 42.090,195.825 41.740 C 195.550 41.409,182.138 41.379,181.875 41.708 M42.410 50.042 C 42.366 50.156,42.349 53.625,42.373 57.750 L 42.417 65.250 57.964 65.333 C 74.404 65.421,73.822 65.393,73.831 66.117 C 73.832 66.227,74.159 66.542,74.558 66.816 C 75.856 67.709,75.909 67.872,75.972 71.116 C 76.037 74.491,75.967 74.367,77.776 74.299 L 79.083 74.250 79.104 62.042 L 79.125 49.833 60.807 49.833 C 46.307 49.833,42.473 49.877,42.410 50.042 M198.609 61.805 C 198.442 61.989,198.333 62.393,198.333 62.827 C 198.333 63.702,197.859 64.524,197.028 65.089 L 196.423 65.500 181.654 65.500 C 167.558 65.500,166.872 65.514,166.609 65.805 C 166.253 66.199,166.180 82.614,166.533 82.967 C 166.824 83.257,201.176 83.257,201.467 82.967 C 201.809 82.624,201.749 62.107,201.405 61.762 C 201.008 61.365,198.979 61.396,198.609 61.805 M36.874 82.041 L 36.917 95.083 38.224 95.132 C 40.014 95.199,39.966 95.273,40.030 92.351 C 40.090 89.573,40.266 89.134,41.677 88.244 L 42.327 87.833 57.715 87.833 C 69.764 87.833,73.164 87.788,73.385 87.625 C 73.645 87.433,73.664 86.696,73.625 78.250 L 73.583 69.083 55.207 69.041 L 36.831 68.999 36.874 82.041 M42.568 91.460 C 42.367 91.597,42.228 115.866,42.426 116.381 C 42.588 116.802,56.571 116.824,56.732 116.403 C 56.788 116.258,56.833 112.804,56.833 108.728 C 56.833 100.685,56.812 100.882,57.777 99.969 C 58.624 99.167,58.633 99.167,68.990 99.167 C 77.109 99.167,78.825 99.127,78.983 98.937 C 79.116 98.777,79.160 97.611,79.128 95.062 L 79.083 91.417 60.917 91.377 C 50.925 91.355,42.668 91.393,42.568 91.460 M59.265 103.476 C 59.089 103.761,59.191 127.575,59.369 127.792 C 59.657 128.141,77.053 128.090,77.405 127.738 C 77.635 127.508,77.667 126.572,77.667 119.969 C 77.667 111.513,77.636 111.731,78.966 110.833 L 79.583 110.417 87.610 110.369 C 94.078 110.331,95.672 110.278,95.822 110.097 C 95.948 109.946,95.993 108.836,95.962 106.645 L 95.917 103.417 77.635 103.374 C 67.441 103.351,59.314 103.396,59.265 103.476 M80.212 114.635 C 79.942 114.807,79.931 138.633,80.201 138.958 C 80.448 139.256,116.335 139.265,116.633 138.967 C 116.979 138.621,116.917 114.734,116.570 114.601 C 116.177 114.450,80.450 114.484,80.212 114.635 " stroke="none" fill="#fcfcfc" fill-rule="evenodd"></path><path id="path4" d="M141.137 13.625 C 144.283 13.650,149.383 13.650,152.471 13.625 C 155.558 13.600,152.983 13.579,146.750 13.579 C 140.517 13.579,137.991 13.600,141.137 13.625 M158.406 18.417 C 158.406 20.892,158.429 21.927,158.458 20.718 C 158.486 19.509,158.486 17.484,158.458 16.218 C 158.430 14.952,158.406 15.942,158.406 18.417 M77.574 21.167 C 77.574 23.871,77.597 24.977,77.625 23.625 C 77.653 22.273,77.653 20.060,77.625 18.708 C 77.597 17.356,77.574 18.462,77.574 21.167 M158.404 29.167 C 158.404 31.046,158.428 31.815,158.458 30.875 C 158.487 29.935,158.487 28.398,158.458 27.458 C 158.428 26.519,158.404 27.287,158.404 29.167 M80.208 26.458 C 81.469 26.486,83.531 26.486,84.792 26.458 C 86.052 26.430,85.021 26.406,82.500 26.406 C 79.979 26.406,78.948 26.430,80.208 26.458 M90.557 30.417 C 90.558 31.150,90.587 31.429,90.622 31.037 C 90.657 30.645,90.657 30.045,90.621 29.704 C 90.585 29.363,90.557 29.683,90.557 30.417 M89.536 34.355 C 89.505 36.188,89.538 36.489,89.792 36.688 C 90.048 36.889,90.059 36.886,89.880 36.656 C 89.753 36.493,89.658 35.621,89.625 34.323 L 89.572 32.250 89.536 34.355 M87.053 38.000 C 87.053 38.596,87.084 38.840,87.121 38.542 C 87.158 38.244,87.158 37.756,87.121 37.458 C 87.084 37.160,87.053 37.404,87.053 38.000 M179.052 40.417 C 179.053 40.967,179.084 41.172,179.121 40.872 C 179.158 40.572,179.157 40.122,179.119 39.872 C 179.081 39.622,179.051 39.867,179.052 40.417 M181.557 43.250 C 181.558 43.983,181.587 44.263,181.622 43.871 C 181.657 43.479,181.657 42.879,181.621 42.537 C 181.585 42.196,181.557 42.517,181.557 43.250 M61.971 45.625 C 65.117 45.650,70.217 45.650,73.304 45.625 C 76.391 45.600,73.817 45.579,67.583 45.579 C 61.350 45.579,58.824 45.600,61.971 45.625 M81.558 49.500 C 81.558 50.279,81.587 50.598,81.622 50.208 C 81.657 49.819,81.657 49.181,81.622 48.792 C 81.587 48.402,81.558 48.721,81.558 49.500 M79.052 52.417 C 79.053 52.967,79.084 53.172,79.121 52.872 C 79.158 52.572,79.157 52.122,79.119 51.872 C 79.081 51.622,79.051 51.867,79.052 52.417 M256.394 107.975 C 256.226 108.418,256.248 108.487,256.615 108.684 C 257.159 108.975,257.583 108.704,257.583 108.065 C 257.583 107.333,256.662 107.263,256.394 107.975 M144.000 109.177 L 144.000 110.021 144.542 109.969 C 145.061 109.919,145.085 109.884,145.134 109.125 L 145.185 108.333 144.592 108.333 L 144.000 108.333 144.000 109.177 M260.833 108.802 C 260.833 109.341,261.072 109.590,261.583 109.586 C 262.239 109.580,262.042 108.429,261.375 108.364 C 260.875 108.316,260.833 108.350,260.833 108.802 M349.667 108.828 C 349.667 109.422,349.979 109.612,350.497 109.335 C 351.061 109.033,350.882 108.429,350.208 108.364 C 349.703 108.316,349.667 108.346,349.667 108.828 M335.208 109.713 C 334.561 110.009,334.704 110.667,335.417 110.667 C 335.920 110.667,336.000 110.612,336.000 110.270 C 336.000 109.724,335.678 109.497,335.208 109.713 M182.833 110.500 C 182.833 110.944,182.889 111.000,183.333 111.000 C 183.778 111.000,183.833 110.944,183.833 110.500 C 183.833 110.056,183.778 110.000,183.333 110.000 C 182.889 110.000,182.833 110.056,182.833 110.500 M254.902 110.228 C 254.664 110.849,254.913 112.250,255.271 112.301 C 255.695 112.361,255.919 111.540,255.739 110.583 C 255.625 109.976,255.086 109.748,254.902 110.228 M355.167 110.396 C 355.167 110.902,355.553 111.225,355.992 111.086 C 356.650 110.877,356.454 110.000,355.750 110.000 C 355.247 110.000,355.167 110.055,355.167 110.396 M348.610 110.576 C 348.107 110.958,348.325 111.409,349.043 111.468 C 349.602 111.515,349.667 111.479,349.667 111.127 C 349.667 110.411,349.170 110.152,348.610 110.576 M344.294 111.092 C 344.400 111.644,345.057 111.605,345.137 111.042 C 345.181 110.726,345.113 110.667,344.701 110.667 C 344.267 110.667,344.222 110.714,344.294 111.092 M239.667 123.119 L 239.667 135.094 240.076 135.128 C 240.802 135.188,240.833 134.685,240.816 123.000 C 240.799 111.229,240.802 111.277,240.118 111.197 L 239.667 111.145 239.667 123.119 M350.208 111.441 C 349.703 111.652,349.974 112.357,350.541 112.302 C 350.992 112.259,351.081 112.181,351.082 111.833 C 351.083 111.415,350.691 111.239,350.208 111.441 M140.173 111.989 C 140.059 112.202,140.000 116.003,140.000 123.167 C 140.000 134.575,140.006 134.667,140.756 134.667 L 141.167 134.667 141.167 123.167 L 141.167 111.667 140.756 111.667 C 140.520 111.667,140.271 111.804,140.173 111.989 M336.410 112.375 C 336.366 112.490,336.350 117.421,336.373 123.333 L 336.417 134.083 336.875 134.136 L 337.333 134.189 337.333 123.178 L 337.333 112.167 336.911 112.167 C 336.679 112.167,336.454 112.260,336.410 112.375 M261.033 112.867 C 260.572 113.328,260.789 114.025,261.375 113.969 C 261.870 113.921,261.921 113.862,261.968 113.292 C 262.024 112.625,261.509 112.391,261.033 112.867 M351.698 113.375 C 351.767 114.094,352.402 114.247,352.568 113.585 C 352.708 113.025,352.579 112.833,352.063 112.833 C 351.692 112.833,351.651 112.894,351.698 113.375 M256.404 113.907 C 256.261 114.479,256.431 114.667,257.093 114.667 C 257.580 114.667,257.667 114.609,257.667 114.283 C 257.667 113.469,256.594 113.149,256.404 113.907 M179.667 114.417 C 179.667 114.750,179.583 114.833,179.250 114.833 C 178.963 114.833,178.833 114.925,178.833 115.127 C 178.833 115.289,178.665 115.495,178.458 115.585 C 177.926 115.819,177.956 116.417,178.500 116.417 C 178.805 116.417,178.931 116.316,178.970 116.042 C 179.004 115.799,179.138 115.667,179.349 115.667 C 179.543 115.667,179.739 115.498,179.833 115.250 C 179.920 115.021,180.106 114.833,180.246 114.833 C 180.406 114.833,180.500 114.679,180.500 114.417 C 180.500 114.083,180.417 114.000,180.083 114.000 C 179.750 114.000,179.667 114.083,179.667 114.417 M360.333 115.250 C 360.333 115.583,360.417 115.667,360.750 115.667 C 361.083 115.667,361.167 115.583,361.167 115.250 C 361.167 114.917,361.083 114.833,360.750 114.833 C 360.417 114.833,360.333 114.917,360.333 115.250 M353.449 115.950 C 352.980 116.072,353.126 117.066,353.623 117.136 C 354.115 117.206,354.495 116.479,354.171 116.088 C 354.054 115.948,353.912 115.842,353.855 115.853 C 353.797 115.863,353.614 115.907,353.449 115.950 M361.068 116.751 C 360.941 117.260,361.163 117.557,361.607 117.472 C 362.088 117.379,362.037 116.434,361.548 116.364 C 361.267 116.324,361.152 116.417,361.068 116.751 M46.136 116.792 C 48.090 116.818,51.240 116.818,53.136 116.791 C 55.032 116.765,53.433 116.743,49.583 116.743 C 45.733 116.743,44.182 116.765,46.136 116.792 M161.278 117.278 C 161.020 117.536,161.192 118.018,161.597 118.172 C 162.155 118.384,162.333 118.260,162.333 117.657 C 162.333 117.176,161.631 116.924,161.278 117.278 M165.500 117.553 C 165.500 118.153,165.905 118.430,166.433 118.190 C 167.114 117.879,166.923 117.264,166.125 117.198 C 165.560 117.151,165.500 117.185,165.500 117.553 M228.611 117.278 C 228.328 117.561,228.513 118.000,228.917 118.000 C 229.250 118.000,229.333 117.917,229.333 117.583 C 229.333 117.180,228.895 116.994,228.611 117.278 M277.667 117.646 C 277.667 118.263,277.842 118.385,278.414 118.168 C 279.077 117.916,278.940 117.268,278.208 117.198 C 277.706 117.149,277.667 117.182,277.667 117.646 M159.667 118.511 C 159.667 118.970,159.713 119.017,160.125 118.969 C 160.851 118.886,160.899 118.000,160.178 118.000 C 159.719 118.000,159.667 118.052,159.667 118.511 M167.500 118.408 C 167.500 118.633,167.602 118.877,167.726 118.950 C 167.850 119.023,168.040 119.252,168.148 119.458 C 168.463 120.057,169.167 119.971,169.167 119.333 C 169.167 118.911,169.102 118.833,168.750 118.833 C 168.417 118.833,168.333 118.750,168.333 118.417 C 168.333 118.083,168.250 118.000,167.917 118.000 C 167.586 118.000,167.500 118.084,167.500 118.408 M207.197 118.442 C 207.307 119.358,208.333 119.416,208.333 118.505 C 208.333 118.037,208.290 118.000,207.739 118.000 C 207.194 118.000,207.149 118.037,207.197 118.442 M226.944 118.111 C 226.642 118.413,226.849 118.833,227.300 118.833 C 227.687 118.833,227.767 118.762,227.767 118.417 C 227.767 118.010,227.241 117.814,226.944 118.111 M233.000 118.406 C 233.000 118.772,233.073 118.833,233.512 118.833 C 233.947 118.833,234.015 118.777,233.970 118.458 C 233.886 117.869,233.000 117.821,233.000 118.406 M270.833 118.417 C 270.833 118.739,270.748 118.833,270.453 118.833 C 270.168 118.833,270.064 118.937,270.038 119.250 C 270.008 119.609,270.072 119.667,270.502 119.667 C 270.834 119.667,271.000 119.583,271.000 119.417 C 271.000 119.279,271.135 119.167,271.300 119.167 C 271.711 119.167,272.000 118.843,272.000 118.383 C 272.000 118.056,271.914 118.000,271.417 118.000 C 270.906 118.000,270.833 118.052,270.833 118.417 M298.000 118.594 C 298.000 119.464,299.051 119.416,299.136 118.542 C 299.186 118.022,299.164 118.000,298.594 118.000 C 298.024 118.000,298.000 118.024,298.000 118.594 M150.292 118.513 C 149.820 118.788,149.910 119.500,150.417 119.500 C 150.750 119.500,150.833 119.583,150.833 119.917 C 150.833 120.540,151.615 120.512,151.773 119.884 C 151.845 119.597,151.815 119.411,151.689 119.369 C 151.581 119.333,151.380 119.085,151.242 118.818 C 150.977 118.305,150.766 118.237,150.292 118.513 M254.208 118.607 C 253.801 118.778,253.961 119.500,254.405 119.500 C 254.698 119.500,254.825 119.604,254.863 119.875 C 254.945 120.452,255.601 120.475,255.710 119.905 C 255.774 119.569,255.720 119.439,255.490 119.379 C 255.323 119.335,255.162 119.138,255.134 118.941 C 255.084 118.587,254.640 118.427,254.208 118.607 M197.167 119.147 C 197.167 119.321,197.018 119.500,196.833 119.548 C 196.634 119.600,196.500 119.776,196.500 119.984 C 196.500 120.245,196.395 120.333,196.083 120.333 C 195.711 120.333,195.667 120.401,195.667 120.979 C 195.667 121.718,196.678 121.805,196.805 121.077 C 196.836 120.897,196.954 120.675,197.066 120.583 C 197.179 120.492,197.318 120.291,197.375 120.138 C 197.433 119.985,197.653 119.835,197.865 119.805 C 198.590 119.702,198.497 118.833,197.761 118.833 C 197.290 118.833,197.167 118.898,197.167 119.147 M307.500 119.232 C 307.500 119.452,307.614 119.675,307.753 119.728 C 307.891 119.781,308.077 120.014,308.165 120.246 C 308.278 120.542,308.449 120.667,308.746 120.667 C 309.363 120.667,309.366 119.723,308.750 119.568 C 308.489 119.503,308.333 119.346,308.333 119.149 C 308.333 118.923,308.214 118.833,307.917 118.833 C 307.588 118.833,307.500 118.918,307.500 119.232 M354.118 118.937 C 353.772 119.284,354.000 120.333,354.422 120.333 C 354.905 120.333,355.197 119.787,355.002 119.250 C 354.879 118.913,354.335 118.720,354.118 118.937 M361.677 119.208 C 361.484 119.707,361.836 120.250,362.354 120.250 C 362.701 120.250,362.756 120.162,362.801 119.542 C 362.862 118.695,361.978 118.433,361.677 119.208 M201.768 119.471 C 201.721 119.547,201.726 119.776,201.780 119.980 C 201.904 120.454,202.715 120.420,202.807 119.937 C 202.895 119.470,202.013 119.074,201.768 119.471 M204.548 119.467 C 204.207 119.684,204.489 120.333,204.925 120.333 C 205.320 120.333,205.619 119.828,205.418 119.501 C 205.295 119.303,204.834 119.285,204.548 119.467 M233.851 119.800 C 233.644 120.188,233.551 122.178,233.727 122.463 C 233.796 122.575,234.076 122.667,234.349 122.667 L 234.846 122.667 234.798 121.125 C 234.747 119.498,234.327 118.910,233.851 119.800 M296.993 119.846 C 296.770 120.263,296.894 120.667,297.245 120.667 C 297.425 120.667,297.500 120.496,297.500 120.083 C 297.500 119.430,297.273 119.324,296.993 119.846 M279.042 120.275 C 278.696 120.418,278.805 120.954,279.201 121.057 C 279.639 121.172,279.619 121.188,279.692 120.671 C 279.750 120.255,279.484 120.093,279.042 120.275 M169.033 120.533 C 168.563 121.004,168.872 121.833,169.518 121.833 C 169.978 121.833,170.000 121.799,170.000 121.083 C 170.000 120.293,169.537 120.029,169.033 120.533 M209.740 120.730 C 209.598 121.297,209.760 121.500,210.354 121.500 C 210.818 121.500,210.851 121.461,210.802 120.958 C 210.732 120.231,209.910 120.054,209.740 120.730 M226.148 121.298 C 225.659 121.802,225.572 121.989,225.684 122.293 C 225.873 122.804,226.833 122.837,226.833 122.333 C 226.833 122.150,226.942 122.000,227.075 122.000 C 227.208 122.000,227.384 121.879,227.467 121.732 C 227.605 121.485,227.625 121.485,227.720 121.732 C 227.887 122.168,228.478 122.060,228.601 121.571 C 228.743 121.008,228.502 120.777,227.980 120.976 C 227.688 121.087,227.481 121.065,227.254 120.899 C 226.831 120.589,226.838 120.587,226.148 121.298 M159.450 120.939 C 159.095 121.293,159.337 122.022,159.792 121.969 C 160.241 121.918,160.619 121.000,160.191 121.000 C 160.101 121.000,159.923 120.960,159.797 120.911 C 159.670 120.863,159.514 120.875,159.450 120.939 M162.375 121.014 C 161.895 121.195,161.882 121.773,162.354 121.923 C 162.733 122.044,162.993 121.793,162.997 121.302 C 163.001 120.924,162.826 120.844,162.375 121.014 M302.833 122.167 C 302.833 122.638,302.878 122.684,303.292 122.636 C 303.655 122.594,303.750 122.497,303.750 122.167 C 303.750 121.836,303.655 121.739,303.292 121.697 C 302.878 121.650,302.833 121.695,302.833 122.167 M194.944 122.111 C 194.639 122.417,194.849 122.833,195.310 122.833 C 195.729 122.833,195.777 122.783,195.707 122.417 C 195.632 122.021,195.205 121.850,194.944 122.111 M210.512 122.311 C 210.230 122.837,210.462 123.167,211.112 123.167 C 211.661 123.167,211.685 123.142,211.636 122.625 C 211.571 121.955,210.815 121.744,210.512 122.311 M268.452 122.103 C 268.308 122.247,268.299 123.439,268.438 123.958 C 268.620 124.636,269.284 124.452,269.522 123.658 C 269.850 122.564,269.092 121.463,268.452 122.103 M162.833 123.333 C 162.833 124.348,162.836 124.355,163.289 124.303 C 163.854 124.237,164.145 123.563,163.904 122.875 C 163.546 121.851,162.833 122.156,162.833 123.333 M280.411 122.509 C 280.179 122.885,280.493 123.500,280.917 123.500 C 281.213 123.500,281.355 123.387,281.429 123.093 C 281.562 122.563,281.407 122.333,280.917 122.333 C 280.698 122.333,280.471 122.413,280.411 122.509 M157.779 122.625 C 157.596 122.937,158.007 123.522,158.374 123.470 C 159.021 123.378,159.003 122.500,158.354 122.500 C 158.079 122.500,157.820 122.556,157.779 122.625 M309.677 123.208 C 309.484 123.707,309.836 124.250,310.354 124.250 C 310.701 124.250,310.756 124.162,310.801 123.542 C 310.862 122.695,309.978 122.433,309.677 123.208 M225.040 123.375 C 224.756 123.726,225.097 124.333,225.578 124.333 C 225.949 124.333,226.000 124.263,226.000 123.750 C 226.000 123.127,225.421 122.901,225.040 123.375 M200.239 124.429 C 200.109 125.297,200.253 125.528,200.792 125.321 C 201.258 125.142,201.345 123.937,200.903 123.768 C 200.428 123.585,200.355 123.658,200.239 124.429 M194.034 125.375 C 194.112 127.028,195.167 126.764,195.167 125.092 C 195.167 124.624,194.863 124.333,194.375 124.333 C 194.001 124.333,193.986 124.379,194.034 125.375 M316.416 125.708 C 316.362 126.006,316.340 127.225,316.367 128.417 L 316.417 130.583 316.958 130.636 L 317.500 130.688 317.500 127.927 L 317.500 125.167 317.008 125.167 C 316.583 125.167,316.501 125.242,316.416 125.708 M361.760 126.199 C 361.451 126.934,361.712 127.500,362.360 127.500 C 362.823 127.500,362.833 127.479,362.833 126.583 C 362.833 125.444,362.176 125.209,361.760 126.199 M354.034 127.112 C 354.109 128.807,355.167 128.615,355.167 126.905 C 355.167 126.236,354.986 126.000,354.475 126.000 L 353.985 126.000 354.034 127.112 M271.778 128.111 C 271.384 128.505,271.680 129.167,272.250 129.167 C 272.748 129.167,272.833 129.110,272.833 128.783 C 272.833 128.175,272.149 127.740,271.778 128.111 M194.111 128.611 C 194.050 128.672,194.000 129.160,194.000 129.694 C 194.000 130.769,194.577 131.123,195.010 130.314 C 195.419 129.550,194.642 128.080,194.111 128.611 M273.542 129.005 C 273.016 129.217,273.049 129.798,273.596 129.935 C 274.142 130.072,274.405 129.809,274.268 129.262 C 274.151 128.797,274.103 128.780,273.542 129.005 M275.208 129.713 C 274.561 130.009,274.704 130.667,275.417 130.667 C 275.920 130.667,276.000 130.612,276.000 130.270 C 276.000 129.724,275.678 129.497,275.208 129.713 M309.768 130.181 C 309.451 130.933,309.706 131.500,310.360 131.500 C 310.817 131.500,310.833 131.471,310.833 130.667 C 310.833 130.208,310.764 129.833,310.680 129.833 C 310.596 129.833,310.408 129.788,310.263 129.732 C 310.075 129.660,309.932 129.789,309.768 130.181 M201.006 130.321 C 200.748 130.804,200.967 131.167,201.518 131.167 C 201.958 131.167,202.000 131.116,202.000 130.583 C 202.000 129.903,201.325 129.725,201.006 130.321 M268.441 130.366 C 268.264 131.026,268.320 137.330,268.506 137.678 C 268.609 137.870,268.854 138.000,269.113 138.000 L 269.548 138.000 269.462 134.574 C 269.391 131.727,269.417 131.107,269.617 130.907 C 270.031 130.493,269.813 130.089,269.145 130.033 C 268.637 129.990,268.528 130.042,268.441 130.366 M353.167 130.583 C 353.167 131.111,353.211 131.167,353.633 131.167 C 354.287 131.167,354.521 130.894,354.294 130.396 C 353.980 129.707,353.167 129.842,353.167 130.583 M276.595 130.554 C 276.090 130.924,276.395 131.500,277.095 131.500 C 277.580 131.500,277.667 131.442,277.667 131.117 C 277.667 130.417,277.152 130.147,276.595 130.554 M201.873 131.694 C 201.503 132.064,201.624 132.650,202.096 132.768 C 202.640 132.905,202.874 132.671,202.805 132.062 C 202.744 131.534,202.234 131.332,201.873 131.694 M297.123 132.763 C 297.036 133.222,297.307 133.443,297.750 133.273 C 298.080 133.146,298.071 132.563,297.736 132.434 C 297.299 132.267,297.209 132.315,297.123 132.763 M203.333 133.573 C 203.333 134.060,203.551 134.226,204.001 134.083 C 204.578 133.900,204.444 133.167,203.833 133.167 C 203.414 133.167,203.333 133.233,203.333 133.573 M271.347 133.542 C 271.203 133.921,271.388 134.333,271.702 134.333 C 271.791 134.333,271.992 134.493,272.150 134.688 C 272.534 135.162,273.167 134.986,273.167 134.405 C 273.167 134.084,273.080 134.000,272.750 134.000 C 272.417 134.000,272.333 133.917,272.333 133.583 C 272.333 133.016,271.559 132.983,271.347 133.542 M308.227 133.917 C 308.067 134.332,308.298 134.667,308.745 134.667 C 309.102 134.667,309.167 134.591,309.167 134.167 C 309.167 133.612,308.420 133.413,308.227 133.917 M189.066 134.097 C 189.121 134.242,189.167 134.429,189.167 134.514 C 189.167 134.598,189.354 134.667,189.583 134.667 C 189.917 134.667,190.000 134.583,190.000 134.250 C 190.000 133.895,189.923 133.833,189.482 133.833 C 189.078 133.833,188.987 133.891,189.066 134.097 M195.697 134.208 C 195.778 134.784,196.500 134.832,196.500 134.262 C 196.500 133.913,196.421 133.833,196.072 133.833 C 195.723 133.833,195.653 133.903,195.697 134.208 M282.697 134.208 C 282.767 134.706,283.422 134.817,283.543 134.352 C 283.652 133.937,283.552 133.833,283.044 133.833 C 282.724 133.833,282.654 133.909,282.697 134.208 M162.833 134.738 C 162.833 135.377,162.783 135.484,162.458 135.530 C 161.897 135.610,161.851 136.379,162.393 136.625 C 162.801 136.812,163.333 136.497,163.333 136.069 C 163.333 135.983,163.483 135.820,163.667 135.705 C 164.354 135.276,164.017 134.000,163.217 134.000 C 162.874 134.000,162.833 134.079,162.833 134.738 M298.500 134.422 C 298.500 134.918,298.840 135.098,299.305 134.848 C 299.811 134.578,299.590 134.000,298.981 134.000 C 298.577 134.000,298.500 134.068,298.500 134.422 M350.000 134.411 C 350.000 134.857,350.534 135.253,350.930 135.101 C 351.489 134.887,351.210 134.000,350.583 134.000 C 350.074 134.000,350.000 134.052,350.000 134.411 M356.322 134.565 C 356.056 134.994,356.249 135.500,356.678 135.500 C 357.341 135.500,357.402 134.751,356.750 134.626 C 356.521 134.582,356.328 134.555,356.322 134.565 M157.822 134.931 C 157.460 135.367,157.707 135.913,158.292 135.969 C 158.808 136.019,158.833 135.994,158.833 135.447 C 158.833 134.815,158.190 134.487,157.822 134.931 M218.375 134.784 C 218.146 134.828,218.000 134.978,218.000 135.167 C 218.000 135.361,217.860 135.497,217.625 135.530 C 217.128 135.601,217.118 136.288,217.609 136.615 C 217.925 136.824,217.996 136.821,218.193 136.585 C 218.316 136.438,218.589 136.147,218.799 135.939 C 219.122 135.619,219.119 134.529,218.796 134.689 C 218.771 134.702,218.581 134.745,218.375 134.784 M150.833 135.144 C 150.833 135.362,150.704 135.495,150.460 135.530 C 150.031 135.591,149.878 136.069,150.173 136.425 C 150.480 136.795,150.989 136.716,151.158 136.273 C 151.240 136.056,151.431 135.831,151.582 135.773 C 152.044 135.596,151.830 134.926,151.292 134.864 C 150.927 134.822,150.833 134.879,150.833 135.144 M225.116 135.177 C 225.062 135.382,225.117 135.555,225.251 135.607 C 225.375 135.654,225.553 135.912,225.646 136.180 C 225.831 136.710,226.103 136.788,226.570 136.447 C 226.966 136.157,226.847 135.598,226.373 135.530 C 226.134 135.496,226.000 135.361,226.000 135.155 C 226.000 134.694,225.237 134.713,225.116 135.177 M254.833 135.250 C 254.833 135.583,254.917 135.667,255.250 135.667 C 255.583 135.667,255.667 135.583,255.667 135.250 C 255.667 134.917,255.583 134.833,255.250 134.833 C 254.917 134.833,254.833 134.917,254.833 135.250 M344.333 135.262 C 344.333 135.610,344.403 135.680,344.708 135.637 C 345.284 135.555,345.332 134.833,344.762 134.833 C 344.413 134.833,344.333 134.913,344.333 135.262 M178.833 135.667 C 178.833 136.267,178.875 136.333,179.250 136.333 C 179.548 136.333,179.667 136.423,179.667 136.649 C 179.667 136.938,179.967 137.167,180.347 137.167 C 180.606 137.167,180.519 136.209,180.250 136.106 C 180.112 136.054,180.000 135.873,180.000 135.705 C 180.000 135.290,179.678 135.000,179.217 135.000 C 178.881 135.000,178.833 135.082,178.833 135.667 M197.231 135.572 C 197.066 136.002,197.295 136.333,197.756 136.333 C 198.130 136.333,198.182 136.271,198.136 135.875 C 198.075 135.347,197.404 135.122,197.231 135.572 M297.532 135.463 C 297.019 135.547,297.086 136.227,297.615 136.302 C 297.842 136.334,297.999 136.491,298.031 136.719 C 298.071 136.995,298.215 137.096,298.625 137.136 C 299.371 137.208,299.451 136.267,298.722 135.989 C 298.477 135.896,298.196 135.726,298.097 135.610 C 297.998 135.494,297.743 135.428,297.532 135.463 M247.198 136.042 C 247.234 136.413,247.368 136.635,247.625 136.748 C 247.881 136.860,248.000 137.056,248.000 137.363 C 248.000 137.906,248.215 138.066,248.759 137.929 C 249.386 137.772,249.377 136.333,248.750 136.333 C 248.417 136.333,248.333 136.250,248.333 135.917 C 248.333 135.550,248.262 135.500,247.739 135.500 C 247.170 135.500,247.148 135.522,247.198 136.042 M334.944 135.611 C 334.664 135.892,334.846 136.497,335.241 136.596 C 335.795 136.735,336.000 136.571,336.000 135.990 C 336.000 135.510,335.298 135.258,334.944 135.611 M207.421 136.135 C 207.082 136.473,207.360 137.167,207.833 137.167 C 208.273 137.167,208.333 137.109,208.333 136.686 C 208.333 136.233,207.703 135.852,207.421 136.135 M305.867 136.200 C 305.424 136.643,305.623 137.192,306.207 137.136 C 306.841 137.074,307.043 136.565,306.570 136.219 C 306.200 135.949,306.119 135.947,305.867 136.200 M353.113 136.276 C 352.801 136.588,353.006 137.162,353.417 137.128 C 353.769 137.099,354.167 136.595,353.974 136.425 C 353.811 136.282,353.211 136.178,353.113 136.276 M144.000 137.073 C 144.000 137.899,144.160 138.080,144.759 137.929 C 145.513 137.740,145.358 136.333,144.583 136.333 C 144.004 136.333,144.000 136.339,144.000 137.073 M159.500 137.044 C 159.500 137.907,159.597 138.049,160.031 137.817 C 160.516 137.557,160.395 136.437,159.875 136.363 C 159.535 136.315,159.500 136.378,159.500 137.044 M171.199 137.125 C 171.248 137.882,171.272 137.917,171.750 137.917 C 172.228 137.917,172.252 137.882,172.301 137.125 L 172.352 136.333 171.750 136.333 L 171.148 136.333 171.199 137.125 M263.199 137.125 C 263.248 137.882,263.272 137.917,263.750 137.917 C 264.228 137.917,264.252 137.882,264.301 137.125 L 264.352 136.333 263.750 136.333 L 263.148 136.333 263.199 137.125 M181.458 137.011 C 181.013 137.274,181.093 137.808,181.596 137.935 C 182.118 138.066,182.380 137.837,182.306 137.313 C 182.243 136.874,181.898 136.751,181.458 137.011 M200.601 137.050 C 200.170 137.365,200.504 138.000,201.100 138.000 C 201.475 138.000,201.515 137.940,201.469 137.460 C 201.410 136.855,201.080 136.699,200.601 137.050 M278.571 137.056 C 278.383 137.544,278.570 137.917,279.002 137.917 C 279.330 137.917,279.428 137.821,279.469 137.458 C 279.498 137.206,279.448 137.000,279.358 137.000 C 279.268 137.000,279.076 136.955,278.932 136.899 C 278.777 136.840,278.629 136.904,278.571 137.056 M349.778 136.944 C 349.603 137.119,349.648 137.802,349.843 137.923 C 350.170 138.124,350.833 137.843,350.833 137.503 C 350.833 137.057,350.069 136.653,349.778 136.944 M296.992 143.103 C 296.745 143.753,297.031 144.376,297.543 144.303 C 297.932 144.248,298.233 142.833,297.857 142.833 C 297.767 142.833,297.576 142.788,297.433 142.733 C 297.251 142.663,297.117 142.777,296.992 143.103 M300.274 146.618 C 300.287 146.966,300.305 147.306,300.315 147.375 C 300.403 147.984,301.181 147.430,301.135 146.792 C 301.060 145.767,300.236 145.601,300.274 146.618 " stroke="none" fill="#dc6484" fill-rule="evenodd"></path></g></svg>