<?xml version="1.0" encoding="UTF-8"?><svg id="d" xmlns="http://www.w3.org/2000/svg" xmlns:xlink="http://www.w3.org/1999/xlink" viewBox="0 0 412.86 292"><defs><symbol id="a" viewBox="0 0 372 300"><rect id="b" x="10" y="10" width="352" height="280" style="fill:#fff; stroke:#000; stroke-width:20px;"/><line id="c" x1="10" y1="270" x2="362" y2="270" style="fill:none; stroke:#000; stroke-width:20px;"/></symbol><clipPath id="g"><rect x="231.92" y="62" width="74.4" height="60" style="fill:none;"/></clipPath><clipPath id="i"><rect x="188" y="22.47" width="74.4" height="60" style="fill:none;"/></clipPath><clipPath id="k"><rect x="128" y="8" width="74.4" height="60" style="fill:none;"/></clipPath><clipPath id="m"><rect x="68" y="22.47" width="74.4" height="60" style="fill:none;"/></clipPath><clipPath id="o"><rect x="24.08" y="62" width="74.4" height="60" style="fill:none;"/></clipPath><clipPath id="q"><rect x="8" y="116" width="74.4" height="60" style="fill:none;"/></clipPath><clipPath id="s"><rect x="24.08" y="170" width="74.4" height="60" style="fill:none;"/></clipPath><clipPath id="u"><rect x="68" y="209.53" width="74.4" height="60" style="fill:none;"/></clipPath><clipPath id="w"><rect x="128" y="224" width="74.4" height="60" style="fill:none;"/></clipPath></defs><rect id="e" x="94.9" y="210.92" width="1.4" height="4.2" style="fill:#a50000;"/><g id="f"><g style="clip-path:url(#g);"><use id="h" width="372" height="300" transform="translate(231.92 122) scale(.2 -.2)" xlink:href="#a"/></g><g style="clip-path:url(#i);"><use id="j" width="372" height="300" transform="translate(188 82.47) scale(.2 -.2)" xlink:href="#a"/></g><g style="clip-path:url(#k);"><use id="l" width="372" height="300" transform="translate(128 68) scale(.2 -.2)" xlink:href="#a"/></g><g style="clip-path:url(#m);"><use id="n" width="372" height="300" transform="translate(68 82.47) scale(.2 -.2)" xlink:href="#a"/></g><g style="clip-path:url(#o);"><use id="p" width="372" height="300" transform="translate(24.08 122) scale(.2 -.2)" xlink:href="#a"/></g><g style="clip-path:url(#q);"><use id="r" width="372" height="300" transform="translate(8 176) scale(.2 -.2)" xlink:href="#a"/></g><g style="clip-path:url(#s);"><use id="t" width="372" height="300" transform="translate(24.08 230) scale(.2 -.2)" xlink:href="#a"/></g><g style="clip-path:url(#u);"><use id="v" width="372" height="300" transform="translate(68 269.53) scale(.2 -.2)" xlink:href="#a"/></g><g style="clip-path:url(#w);"><use id="x" width="372" height="300" transform="translate(128 284) scale(.2 -.2)" xlink:href="#a"/></g></g><g id="y" style="isolation:isolate;"><text transform="translate(119.53 200.02)" style="fill:#fff; font-family:TimesNewRomanPSMT, &apos;Times New Roman&apos;; font-size:96px; isolation:isolate;"><tspan x="0" y="0">Medley</tspan></text><text transform="translate(119.53 200.02)" style="fill:none; font-family:TimesNewRomanPSMT, &apos;Times New Roman&apos;; font-size:96px; isolation:isolate; stroke:#fff; stroke-width:.15px;"><tspan x="0" y="0">Medley</tspan></text></g></svg>